<?xml version="1.0" encoding="UTF-8"?>
<svg width="188px" height="188px" viewBox="0 0 188 188" version="1.1" xmlns="http://www.w3.org/2000/svg" xmlns:xlink="http://www.w3.org/1999/xlink">
    <!-- Generator: Sketch 53.2 (72643) - https://sketchapp.com -->
    <title>wrong-page 2</title>
    <desc>Created with Sketch.</desc>
    <defs>
        <linearGradient x1="50%" y1="0%" x2="50%" y2="100%" id="linearGradient-1">
            <stop stop-color="#A1A1A1" offset="0%"></stop>
            <stop stop-color="#E8E8E8" offset="100%"></stop>
        </linearGradient>
        <circle id="path-2" cx="94" cy="94" r="94"></circle>
        <circle id="path-4" cx="50.832618" cy="50.832618" r="50.832618"></circle>
        <circle id="path-6" cx="30.9117272" cy="15.1124" r="15.1124"></circle>
        <filter x="-9.9%" y="-9.9%" width="119.9%" height="119.9%" filterUnits="objectBoundingBox" id="filter-7">
            <feOffset dx="-6" dy="1" in="SourceAlpha" result="shadowOffsetInner1"></feOffset>
            <feComposite in="shadowOffsetInner1" in2="SourceAlpha" operator="arithmetic" k2="-1" k3="1" result="shadowInnerInner1"></feComposite>
            <feColorMatrix values="0 0 0 0 0.36370642   0 0 0 0 0.36370642   0 0 0 0 0.36370642  0 0 0 0.0380434783 0" type="matrix" in="shadowInnerInner1"></feColorMatrix>
        </filter>
        <circle id="path-8" cx="85.1789816" cy="34.3463635" r="6.86927271"></circle>
        <filter x="-7.3%" y="-7.3%" width="114.6%" height="114.6%" filterUnits="objectBoundingBox" id="filter-9">
            <feOffset dx="-2" dy="1" in="SourceAlpha" result="shadowOffsetInner1"></feOffset>
            <feComposite in="shadowOffsetInner1" in2="SourceAlpha" operator="arithmetic" k2="-1" k3="1" result="shadowInnerInner1"></feComposite>
            <feColorMatrix values="0 0 0 0 0   0 0 0 0 0   0 0 0 0 0  0 0 0 0.0490262681 0" type="matrix" in="shadowInnerInner1"></feColorMatrix>
        </filter>
        <circle id="path-10" cx="50.9236227" cy="74.9660772" r="10.3039091"></circle>
        <filter x="-7.3%" y="-7.3%" width="114.6%" height="114.6%" filterUnits="objectBoundingBox" id="filter-11">
            <feOffset dx="-3" dy="1" in="SourceAlpha" result="shadowOffsetInner1"></feOffset>
            <feComposite in="shadowOffsetInner1" in2="SourceAlpha" operator="arithmetic" k2="-1" k3="1" result="shadowInnerInner1"></feComposite>
            <feColorMatrix values="0 0 0 0 0.752869898   0 0 0 0 0.752869898   0 0 0 0 0.752869898  0 0 0 0.254047781 0" type="matrix" in="shadowInnerInner1"></feColorMatrix>
        </filter>
        <circle id="path-12" cx="7.26180258" cy="7.26180258" r="7.26180258"></circle>
        <circle id="path-14" cx="4.41596103" cy="2.15891428" r="2.15891428"></circle>
        <filter x="-69.5%" y="-69.5%" width="239.0%" height="239.0%" filterUnits="objectBoundingBox" id="filter-15">
            <feOffset dx="-6" dy="1" in="SourceAlpha" result="shadowOffsetInner1"></feOffset>
            <feComposite in="shadowOffsetInner1" in2="SourceAlpha" operator="arithmetic" k2="-1" k3="1" result="shadowInnerInner1"></feComposite>
            <feColorMatrix values="0 0 0 0 0.36370642   0 0 0 0 0.36370642   0 0 0 0 0.36370642  0 0 0 0.0380434783 0" type="matrix" in="shadowInnerInner1"></feColorMatrix>
        </filter>
        <circle id="path-16" cx="11.411404" cy="5.18700184" r="1.03740037"></circle>
        <filter x="-48.2%" y="-48.2%" width="196.4%" height="196.4%" filterUnits="objectBoundingBox" id="filter-17">
            <feOffset dx="-2" dy="1" in="SourceAlpha" result="shadowOffsetInner1"></feOffset>
            <feComposite in="shadowOffsetInner1" in2="SourceAlpha" operator="arithmetic" k2="-1" k3="1" result="shadowInnerInner1"></feComposite>
            <feColorMatrix values="0 0 0 0 0   0 0 0 0 0   0 0 0 0 0  0 0 0 0.0490262681 0" type="matrix" in="shadowInnerInner1"></feColorMatrix>
        </filter>
        <circle id="path-18" cx="6.8583691" cy="6.8583691" r="6.8583691"></circle>
        <circle id="path-20" cx="4.17062986" cy="2.0389746" r="2.0389746"></circle>
        <filter x="-73.6%" y="-73.6%" width="247.1%" height="247.1%" filterUnits="objectBoundingBox" id="filter-21">
            <feOffset dx="-6" dy="1" in="SourceAlpha" result="shadowOffsetInner1"></feOffset>
            <feComposite in="shadowOffsetInner1" in2="SourceAlpha" operator="arithmetic" k2="-1" k3="1" result="shadowInnerInner1"></feComposite>
            <feColorMatrix values="0 0 0 0 0.36370642   0 0 0 0 0.36370642   0 0 0 0 0.36370642  0 0 0 0.0380434783 0" type="matrix" in="shadowInnerInner1"></feColorMatrix>
        </filter>
        <circle id="path-22" cx="9.60171674" cy="8.23004292" r="1"></circle>
        <filter x="-72.9%" y="-72.9%" width="245.8%" height="245.8%" filterUnits="objectBoundingBox" id="filter-23">
            <feOffset dx="-2" dy="1" in="SourceAlpha" result="shadowOffsetInner1"></feOffset>
            <feComposite in="shadowOffsetInner1" in2="SourceAlpha" operator="arithmetic" k2="-1" k3="1" result="shadowInnerInner1"></feComposite>
            <feColorMatrix values="0 0 0 0 0   0 0 0 0 0   0 0 0 0 0  0 0 0 0.0490262681 0" type="matrix" in="shadowInnerInner1"></feColorMatrix>
        </filter>
        <ellipse id="path-24" cx="61.6065567" cy="16.9704347" rx="5.18599034" ry="5.20369844"></ellipse>
        <filter x="-14.4%" y="-14.3%" width="128.8%" height="128.7%" filterUnits="objectBoundingBox" id="filter-25">
            <feOffset dx="2" dy="0" in="SourceAlpha" result="shadowOffsetInner1"></feOffset>
            <feComposite in="shadowOffsetInner1" in2="SourceAlpha" operator="arithmetic" k2="-1" k3="1" result="shadowInnerInner1"></feComposite>
            <feColorMatrix values="0 0 0 0 1   0 0 0 0 1   0 0 0 0 1  0 0 0 0.5 0" type="matrix" in="shadowInnerInner1"></feColorMatrix>
        </filter>
    </defs>
    <g id="火车票" stroke="none" stroke-width="1" fill="none" fill-rule="evenodd">
        <g id="404" transform="translate(-93.000000, -161.000000)">
            <g id="wrong-page-2" transform="translate(93.000000, 161.000000)">
                <g id="wrong-page">
                    <g id="Group">
                        <mask id="mask-3" fill="white">
                            <use xlink:href="#path-2"></use>
                        </mask>
                        <use id="Mask" fill="url(#linearGradient-1)" xlink:href="#path-2"></use>
                        <g mask="url(#mask-3)">
                            <g transform="translate(10.489270, 22.592275)">
                                <g id="Group-3" opacity="0.699999988" stroke="none" stroke-width="1" fill="none" fill-rule="evenodd" transform="translate(28.240343, 9.682403)">
                                    <g id="Oval">
                                        <mask id="mask-5" fill="white">
                                            <use xlink:href="#path-4"></use>
                                        </mask>
                                        <use id="Mask" fill="#E5E5E5" xlink:href="#path-4"></use>
                                        <path d="M17.9462494,3.43463149 C11.106001,12.872412 7.0731108,24.4776566 7.0731108,37.0248332 C7.0731108,68.6705149 32.7270046,94.3244086 64.3726863,94.3244086 C73.8540537,94.3244086 82.7975608,92.021555 90.6743978,87.9446577 C80.262612,102.310243 63.3464646,111.654036 44.2479573,111.654036 C12.6022756,111.654036 -13.0516181,86.0001426 -13.0516181,54.3544609 C-13.0516181,32.1901466 -0.467204635,12.9650796 17.9462458,3.43463635 Z" id="Combined-Shape" fill="#BCBCBC" opacity="0.198765851" mask="url(#mask-5)"></path>
                                        <g opacity="0.300000012" mask="url(#mask-5)">
                                            <use fill="#DBDBDB" fill-rule="evenodd" xlink:href="#path-6"></use>
                                            <use fill="black" fill-opacity="1" filter="url(#filter-7)" xlink:href="#path-6"></use>
                                        </g>
                                    </g>
                                    <g id="Oval-Copy-2" opacity="0.600000024">
                                        <use fill="#DBDBDB" fill-rule="evenodd" xlink:href="#path-8"></use>
                                        <use fill="black" fill-opacity="1" filter="url(#filter-9)" xlink:href="#path-8"></use>
                                    </g>
                                    <g id="Oval-Copy" transform="translate(50.923623, 74.966077) rotate(50.000000) translate(-50.923623, -74.966077) ">
                                        <use fill="#DBDBDB" fill-rule="evenodd" xlink:href="#path-10"></use>
                                        <use fill="black" fill-opacity="1" filter="url(#filter-11)" xlink:href="#path-10"></use>
                                    </g>
                                </g>
                                <g id="Group-3-Copy" opacity="0.600000024" stroke="none" stroke-width="1" fill="none" fill-rule="evenodd" transform="translate(7.261803, 69.390558) scale(-1, 1) translate(-7.261803, -69.390558) translate(0.000000, 62.128755)">
                                    <g id="Oval">
                                        <mask id="mask-13" fill="white">
                                            <use xlink:href="#path-12"></use>
                                        </mask>
                                        <use id="Mask" fill="#DFDFDF" xlink:href="#path-12"></use>
                                        <g mask="url(#mask-13)">
                                            <use fill="#DBDBDB" fill-rule="evenodd" xlink:href="#path-14"></use>
                                            <use fill="black" fill-opacity="1" filter="url(#filter-15)" xlink:href="#path-14"></use>
                                        </g>
                                    </g>
                                    <g id="Oval-Copy-2">
                                        <use fill="#DBDBDB" fill-rule="evenodd" xlink:href="#path-16"></use>
                                        <use fill="black" fill-opacity="1" filter="url(#filter-17)" xlink:href="#path-16"></use>
                                    </g>
                                </g>
                                <g id="Group-3-Copy-2" opacity="0.600000024" stroke="none" stroke-width="1" fill="none" fill-rule="evenodd" transform="translate(129.502146, 15.733906) scale(-1, 1) translate(-129.502146, -15.733906) translate(122.643777, 8.875536)">
                                    <g id="Oval">
                                        <mask id="mask-19" fill="white">
                                            <use xlink:href="#path-18"></use>
                                        </mask>
                                        <use id="Mask" fill="#E8E8E8" xlink:href="#path-18"></use>
                                        <g opacity="0.271286232" mask="url(#mask-19)">
                                            <use fill="#DBDBDB" fill-rule="evenodd" xlink:href="#path-20"></use>
                                            <use fill="black" fill-opacity="1" filter="url(#filter-21)" xlink:href="#path-20"></use>
                                        </g>
                                    </g>
                                    <g id="Oval-Copy-2" opacity="0.266304348">
                                        <use fill="#DBDBDB" fill-rule="evenodd" xlink:href="#path-22"></use>
                                        <use fill="black" fill-opacity="1" filter="url(#filter-23)" xlink:href="#path-22"></use>
                                    </g>
                                </g>
                                <circle id="Mask" stroke="none" fill="#E8E8E8" fill-rule="evenodd" opacity="0.539999962" transform="translate(139.587983, 79.879828) scale(-1, 1) translate(-139.587983, -79.879828) " cx="139.587983" cy="79.8798283" r="3.22746781"></circle>
                                <path d="M23.8981804,8.30188133 L39.3696967,31.1048879" id="Path-11" stroke="#D6D6D6" stroke-width="0.800000012" fill="none"></path>
                                <path d="M24.2060086,8.81545161 C27.8875239,4.95673097 30.9713389,2.7827772 33.4574536,2.29359028 C37.1866257,1.55980991 39.4458304,0.694770688 39.8563157,0.0411483896 C40.1299726,-0.39459981 42.1750061,2.63047686 45.9914163,9.11637838 C43.0832149,10.9693659 40.7688465,11.9861488 39.0483114,12.1667271 C37.3277762,12.3473054 34.422532,14.2087541 30.3325787,17.751073 L24.2060086,8.81545161 Z" id="Path-12" stroke="none" fill="#D8D8D8" fill-rule="evenodd" opacity="0.5"></path>
                                <path d="M34.7905905,9.66164853 C34.791795,9.66040555 34.7924444,9.65975808 34.7924739,9.65972672 C35.7132351,9.18265098 36.7080093,8.46799826 37.6688232,7.40106377 C37.7280758,7.3427715 37.7941563,7.26663282 37.8670647,7.17264771 C37.9140235,7.10660382 37.9715311,7.05107372 38.0393729,7.00884554 C38.4261355,6.76850602 39.0008639,7.05040349 39.3243319,7.63882093 C39.6471229,8.22711825 39.5957878,8.89913203 39.2097021,9.13971177 C39.2042254,9.14311661 39.1987108,9.14641647 39.1931596,9.14961198 C39.1337485,9.18856257 39.0919054,9.21519369 39.0676301,9.22950534 C38.9603647,9.29274428 38.9102953,9.31477166 38.9118114,9.31477166 C37.7850325,9.98029952 36.5359518,10.4932881 35.225833,10.8292349 C35.2252737,10.8292198 35.2247144,10.8292046 35.2241551,10.8291893 C35.1267374,10.8581617 35.0141463,10.8755233 34.9121695,10.9045797 C33.8160788,11.1605335 32.6829818,11.2961373 31.5485308,11.2961373 C31.2747056,11.2961373 31.0126142,11.278241 30.7658668,11.2393254 C29.9326575,11.1079254 29.0472103,10.4061244 29.0472103,9.36465322 C29.0472103,8.32918747 29.8386746,7.48673802 30.8113351,7.48673802 L31.3841454,7.48673802 C31.5392792,6.00074078 32.7255166,4.84120172 34.1616605,4.84120172 C35.520181,4.84120172 36.6776482,5.87306417 36.9143541,7.29468261 C36.9441398,7.47448683 36.8353769,7.60372487 36.666817,7.63555394 C36.4975802,7.66678246 36.3327435,7.58991225 36.3027322,7.40998792 C36.1188281,6.30461833 35.2183753,5.50228552 34.1616605,5.50228552 C32.9628995,5.50228552 31.9875312,6.540754 31.9875312,7.81727992 C31.9875312,7.99996678 31.8486442,8.14782182 31.677038,8.14782182 L30.8113351,8.14782182 C30.1809843,8.14782182 29.6681967,8.69360031 29.6681967,9.36465322 C29.6681967,10.0357061 30.2806084,10.4944051 30.8569163,10.5854482 C30.9644381,10.6023837 31.07636,10.6241236 31.190877,10.6218415 C31.7205883,10.6110316 33.0243889,10.5190276 34.5686187,9.77182511 C34.6352463,9.74041742 34.7092369,9.70369189 34.7905905,9.66164853 Z" id="Combined-Shape-Copy-4" stroke="none" fill="#F5F5F5" fill-rule="evenodd" opacity="0.5" transform="translate(34.291845, 8.068670) rotate(-24.000000) translate(-34.291845, -8.068670) "></path>
                            </g>
                        </g>
                    </g>
                    <g id="Group-2" transform="translate(86.400000, 123.200000)">
                        <path d="M47.0342019,14.6038432 C39.1089102,25.5158646 31.5712494,31.4664977 24.4212196,32.4557425 C20.8782129,32.9459363 18.3466719,32.250672 16.1727558,31.2025547" id="Path-7" stroke="#D1D1D1" stroke-width="0.985600076" opacity="0.699999988" transform="translate(31.603479, 23.609955) rotate(20.000000) translate(-31.603479, -23.609955) "></path>
                        <path d="M47.4641309,12.1601913 C39.5388392,23.0722127 32.0011785,29.0228458 24.8511486,30.0120905 C14.1261039,31.4959577 12.6694734,22.1170564 2.34476087,24.9705237" id="Path-7" stroke="#A4A4A4" stroke-width="0.985600076" opacity="0.5" stroke-dasharray="1.971200209426883,1.971200209426883" transform="translate(24.904446, 21.166303) rotate(20.000000) translate(-24.904446, -21.166303) "></path>
                        <rect id="Rectangle-15-Copy-2" stroke="#D5D5D5" stroke-width="0.985600076" fill="#F5F5F5" transform="translate(38.447171, 41.217607) rotate(-324.000000) translate(-38.447171, -41.217607) " x="35.4826437" y="35.1242582" width="5.92905371" height="12.1866985" rx="2.96452685"></rect>
                        <rect id="Rectangle-15-Copy-6" stroke="#D5D5D5" stroke-width="0.985600076" fill="#F5F5F5" transform="translate(32.877904, 33.023576) rotate(-299.000000) translate(-32.877904, -33.023576) " x="29.9133769" y="26.9302266" width="5.92905371" height="12.1866985" rx="2.96452685"></rect>
                        <path d="M36.5517084,10.3221401 C35.0862595,10.3221401 33.8982784,11.5101212 33.8982784,12.9755701 L33.8982784,18.6815262 C33.8982784,20.1469751 35.0862595,21.3349562 36.5517084,21.3349562 C38.0171574,21.3349562 39.2051385,20.1469751 39.2051385,18.6815262 L39.2051385,12.9755701 C39.2051385,11.5101212 38.0171574,10.3221401 36.5517084,10.3221401 Z" id="Rectangle-15-Copy-3" stroke="#D5D5D5" stroke-width="0.985600076" fill="#F5F5F5" transform="translate(36.551708, 15.828548) rotate(-250.000000) translate(-36.551708, -15.828548) "></path>
                        <path d="M43.7696827,12.00057 C42.1324197,12.00057 40.8051558,13.3278339 40.8051558,14.9650968 L40.8051558,19.9446109 C40.8051558,21.5818739 42.1324197,22.9091377 43.7696827,22.9091377 C45.4069457,22.9091377 46.7342095,21.5818739 46.7342095,19.9446109 L46.7342095,14.9650968 C46.7342095,13.3278339 45.4069457,12.00057 43.7696827,12.00057 Z" id="Rectangle-15-Copy" stroke="#D5D5D5" stroke-width="0.985600076" fill="#F5F5F5" transform="translate(43.769683, 17.454854) rotate(-266.000000) translate(-43.769683, -17.454854) "></path>
                        <path d="M55.7876877,27.6221257 C54.3439868,27.6221257 53.1736359,28.7924765 53.1736359,30.2361775 L53.1736359,36.02089 C53.1736359,37.464591 54.3439868,38.6349418 55.7876877,38.6349418 C57.2313886,38.6349418 58.4017395,37.464591 58.4017395,36.02089 L58.4017395,30.2361775 C58.4017395,28.7924765 57.2313886,27.6221257 55.7876877,27.6221257 Z" id="Rectangle-15-Copy" stroke="#D5D5D5" stroke-width="0.985600076" fill="#F5F5F5" transform="translate(55.787688, 33.128534) rotate(-186.000000) translate(-55.787688, -33.128534) "></path>
                        <rect id="Rectangle-15-Copy-3" stroke="#D5D5D5" stroke-width="0.985600076" fill="#F5F5F5" transform="translate(55.154208, 40.921276) scale(-1, -1) rotate(-341.000000) translate(-55.154208, -40.921276) " x="52.5949892" y="36.4831563" width="5.1184365" height="8.87624006" rx="2.55921825"></rect>
                        <path d="M30.604806,42.1792455 C29.2403186,42.1792455 28.134183,43.2853811 28.134183,44.6498685 L28.134183,50.7214387 C28.134183,52.0859261 29.2403186,53.1920617 30.604806,53.1920617 C31.9692934,53.1920617 33.075429,52.0859261 33.075429,50.7214387 L33.075429,44.6498685 C33.075429,43.2853811 31.9692934,42.1792455 30.604806,42.1792455 Z" id="Rectangle-15-Copy-4" stroke="#D5D5D5" stroke-width="0.985600076" fill="#F5F5F5" transform="translate(30.604806, 47.685654) rotate(-297.000000) translate(-30.604806, -47.685654) "></path>
                        <path d="M23.2647164,30.8076048 C21.9002289,30.8076048 20.7940933,31.9137404 20.7940933,33.2782278 L20.7940933,39.3497979 C20.7940933,40.7142853 21.9002289,41.8204209 23.2647164,41.8204209 C24.6292038,41.8204209 25.7353394,40.7142853 25.7353394,39.3497979 L25.7353394,33.2782278 C25.7353394,31.9137404 24.6292038,30.8076048 23.2647164,30.8076048 Z" id="Rectangle-15-Copy-7" stroke="#D5D5D5" stroke-width="0.985600076" fill="#F5F5F5" transform="translate(23.264716, 36.314013) rotate(-279.000000) translate(-23.264716, -36.314013) "></path>
                        <ellipse id="Oval-9" stroke="#D5D5D5" stroke-width="0.985600076" fill="#F5F5F5" transform="translate(61.366228, 14.960619) rotate(-310.000000) translate(-61.366228, -14.960619) " cx="61.3662283" cy="14.9606186" rx="9.87918064" ry="9.91459683"></ellipse>
                        <g id="Oval-9-Copy" transform="translate(61.606557, 16.970435) rotate(-310.000000) translate(-61.606557, -16.970435) ">
                            <use fill="#EDEDED" fill-rule="evenodd" xlink:href="#path-24"></use>
                            <use fill="black" fill-opacity="1" filter="url(#filter-25)" xlink:href="#path-24"></use>
                            <use stroke="#DBDBDB" stroke-width="0.985600076" xlink:href="#path-24"></use>
                        </g>
                        <path d="M44.3949955,18.7216167 C42.7231191,18.7216167 41.3677955,20.0769403 41.3677955,21.7488167 L41.3677955,29.5765264 C41.3677955,31.2484028 42.7231191,32.6037264 44.3949955,32.6037264 L53.6538222,32.6037264 C55.3256986,32.6037264 56.6810222,31.2484028 56.6810222,29.5765264 L56.6810222,21.7488167 C56.6810222,20.0769403 55.3256986,18.7216167 53.6538222,18.7216167 L44.3949955,18.7216167 Z" id="Rectangle-15" stroke="#D5D5D5" stroke-width="0.985600076" fill="#F5F5F5" transform="translate(49.024409, 25.662672) rotate(-310.000000) translate(-49.024409, -25.662672) "></path>
                        <rect id="Rectangle-15-Copy-5" stroke="#D5D5D5" stroke-width="0.985600076" fill="#F5F5F5" transform="translate(41.857155, 31.919526) rotate(-310.000000) translate(-41.857155, -31.919526) " x="34.2005421" y="28.695399" width="15.3132267" height="6.44825483" rx="2.81600003"></rect>
                    </g>
                </g>
            </g>
        </g>
    </g>
</svg>