<?xml version="1.0" encoding="UTF-8"?>
<svg width="14px" height="14px" viewBox="0 0 14 14" version="1.1" xmlns="http://www.w3.org/2000/svg" xmlns:xlink="http://www.w3.org/1999/xlink">
    <!-- Generator: Sketch 54.1 (76490) - https://sketchapp.com -->
    <title>icon/行程 copy 2</title>
    <desc>Created with Sketch.</desc>
    <g id="3" stroke="none" stroke-width="1" fill="none" fill-rule="evenodd">
        <g id="行程列表-copy-7" transform="translate(-46.000000, -155.000000)" fill="#999999">
            <g id="分组" transform="translate(26.000000, 118.000000)">
                <g id="Icons-/-Trip" transform="translate(20.000000, 37.000000)">
                    <path d="M11.9,13.3 C11.9,13.6865993 11.5865993,14 11.2,14 L10.5,14 C10.1134007,14 9.8,13.6865993 9.8,13.3 L9.8,12.5894207 L4.2,12.5894207 L4.2,13.3 C4.2,13.6865993 3.88659932,14 3.5,14 L2.8,14 C2.41340068,14 2.1,13.6865993 2.1,13.3 L2.1,12.5894207 L1.68000007,12.5894207 C0.75216165,12.5894207 1.13627435e-16,11.837259 0,10.9094206 L3.10862447e-16,4.39536531 C1.97235012e-16,3.46752689 0.75216165,2.71536524 1.68000007,2.71536524 L3.605,2.71536524 L3.605,1.86901768 C3.605,0.836787719 4.43551181,1.56605767e-16 5.46000005,0 L8.53999995,0 C9.56448819,-1.56605767e-16 10.395,0.836787719 10.395,1.86901768 L10.395,2.71536524 L12.3199999,2.71536524 C13.2478383,2.71536524 14,3.46752689 14,4.39536531 L14,10.9094206 C14,11.837259 13.2478383,12.5894207 12.3199999,12.5894207 L11.9,12.5894207 L11.9,13.3 Z M5.6,1.41057935 C5.21340068,1.41057935 4.9,1.72398002 4.9,2.11057935 L4.9,2.82115869 L9.1,2.82115869 L9.1,2.11057935 C9.1,1.72398002 8.78659932,1.41057935 8.4,1.41057935 L5.6,1.41057935 Z M4.025,4.9 C3.73505051,4.9 3.5,5.13505051 3.5,5.425 L3.5,8.575 C3.5,8.86494949 3.73505051,9.1 4.025,9.1 C4.31494949,9.1 4.55,8.86494949 4.55,8.575 L4.55,5.425 C4.55,5.13505051 4.31494949,4.9 4.025,4.9 Z M9.975,4.9 C9.68505051,4.9 9.45,5.13505051 9.45,5.425 L9.45,8.575 C9.45,8.86494949 9.68505051,9.1 9.975,9.1 C10.2649495,9.1 10.5,8.86494949 10.5,8.575 L10.5,5.425 C10.5,5.13505051 10.2649495,4.9 9.975,4.9 Z" id="Combined-Shape-Copy"></path>
                </g>
            </g>
        </g>
    </g>
</svg>