<?xml version="1.0" encoding="UTF-8"?>
<svg width="14px" height="14px" viewBox="0 0 14 14" version="1.1" xmlns="http://www.w3.org/2000/svg" xmlns:xlink="http://www.w3.org/1999/xlink">
    <!-- Generator: Sketch 56.3 (81716) - https://sketch.com -->
    <title>bar-code</title>
    <desc>Created with Sketch.</desc>
    <g id="我的行程" stroke="none" stroke-width="1" fill="none" fill-rule="evenodd">
        <path d="M8,2 L6,2 L6,9 L8,9 L8,2 Z M10,2 L9,2 L9,9 L10,9 L10,2 Z M7.99609375,11.15625 L7.6796875,11.15625 L7.6796875,11.453124 L7.99609375,11.453124 L7.99609375,11.15625 Z M4.97265625,11.75 L6.625,11.75 L6.625,11.453125 L5.3066395,11.453125 L5.3066395,11.15625 L4.97265625,11.15625 L4.97265625,11.75 Z M4.97265625,10.28125 L5.3066395,10.28125 L5.3066395,9.984376 L4.97265625,9.984376 L4.97265625,10.28125 Z M5.623048,10.875 L6.2910145,10.875 L6.2910145,10.578124 L5.623048,10.578124 L5.623048,10.875 Z M8.330077,10.578124 L8.330077,10.875 L8.998048,10.875 L8.998048,10.578124 L8.330077,10.578124 Z M5.3066395,9.703124 L5.3066395,9.984376 L6.2910145,9.984376 L6.2910145,9.703124 L5.3066395,9.703124 Z M5,2 L4,2 L4,9 L5,9 L5,2 Z M12.875,1.42108547e-14 L1.125,1.42108547e-14 C0.820311075,1.42108547e-14 0.556641675,0.098958 0.333984375,0.296876 C0.111327007,0.494792 0,0.729166 0,1 L0,13 C0,13.2708346 0.111327007,13.5052074 0.333984375,13.703125 C0.556641675,13.9010427 0.820311075,14 1.125,14 L12.875,14 C13.1796882,14 13.443359,13.9010427 13.6660145,13.703125 C13.8886722,13.5052074 14,13.2708346 14,13 L14,1 C14,0.729166 13.8886722,0.494792 13.6660145,0.296876 C13.443359,0.098958 13.1796882,1.42108547e-14 12.875,1.42108547e-14 Z M13,13 L1,13 L1,1 L13,1 L13,13 Z M3,2 L2,2 L2,12 L3,12 L3,2 Z M5.3066395,11.15625 L5.623048,11.15625 L5.623048,10.875 L5.3066395,10.875 L5.3066395,11.15625 Z M9.314452,9.984376 L8.998048,9.984376 L8.998048,10.578124 L9.314452,10.578124 L9.314452,9.984376 Z M7.99609375,9.703124 L7.99609375,9.984376 L8.998048,9.984376 L8.998048,9.703124 L7.99609375,9.703124 Z M6.625,10.578124 L6.625,9.984376 L6.2910145,9.984376 L6.2910145,10.578124 L6.625,10.578124 Z M7.6796875,10.28125 L7.99609375,10.28125 L7.99609375,9.984376 L7.6796875,9.984376 L7.6796875,10.28125 Z M9.314452,10.875 L8.998048,10.875 L8.998048,11.453124 L9.314452,11.453124 L9.314452,10.875 Z M8.998048,11.75 L8.998048,11.453124 L7.99609375,11.453124 L7.99609375,11.75 L8.998048,11.75 Z M12,2 L11,2 L11,12 L12,12 L12,2 Z" id="bar-code" fill="#007AFF"></path>
    </g>
</svg>