<?xml version="1.0" standalone="no"?><!DOCTYPE svg PUBLIC "-//W3C//DTD SVG 1.1//EN" "http://www.w3.org/Graphics/SVG/1.1/DTD/svg11.dtd"><svg t="1535369760359" class="icon" style="" viewBox="0 0 1024 1024" version="1.1" xmlns="http://www.w3.org/2000/svg" p-id="13268" xmlns:xlink="http://www.w3.org/1999/xlink" width="32" height="32"><defs><style type="text/css"></style></defs><path d="M251.910357 416.247192l118.175493 0 0 98.961896-118.175493 0 0-98.961896Z" p-id="13269" fill="#bfbfbf"></path><path d="M251.910357 546.740222l118.175493 0 0 98.961896-118.175493 0 0-98.961896Z" p-id="13270" fill="#bfbfbf"></path><path d="M251.910357 686.937265l118.175493 0 0 98.961896-118.175493 0 0-98.961896Z" p-id="13271" fill="#bfbfbf"></path><path d="M468.432739 416.247192l118.175493 0 0 98.961896-118.175493 0 0-98.961896Z" p-id="13272" fill="#bfbfbf"></path><path d="M468.432739 546.740222l118.175493 0 0 98.961896-118.175493 0 0-98.961896Z" p-id="13273" fill="#bfbfbf"></path><path d="M468.432739 686.937265l118.175493 0 0 98.961896-118.175493 0 0-98.961896Z" p-id="13274" fill="#bfbfbf"></path><path d="M684.95512 416.247192l118.175493 0 0 98.961896-118.175493 0 0-98.961896Z" p-id="13275" fill="#bfbfbf"></path><path d="M684.95512 546.740222l118.175493 0 0 98.961896-118.175493 0 0-98.961896Z" p-id="13276" fill="#bfbfbf"></path><path d="M684.95512 686.937265l118.175493 0 0 98.961896-118.175493 0 0-98.961896Z" p-id="13277" fill="#bfbfbf"></path><path d="M344.478635 264.087701 344.478635 264.087701c-36.757159 0-66.555835-29.797653-66.555835-66.554812L277.9228 133.467781c0-36.757159 29.797653-66.554812 66.554812-66.554812l0 0c36.757159 0 66.554812 29.797653 66.554812 66.554812l0 64.065108C411.033447 234.290047 381.235794 264.087701 344.478635 264.087701z" p-id="13278" fill="#bfbfbf"></path><path d="M710.562335 264.087701 710.562335 264.087701c-36.757159 0-66.555835-29.797653-66.555835-66.554812L644.0065 133.467781c0-36.757159 29.797653-66.554812 66.554812-66.554812l0 0c36.757159 0 66.554812 29.797653 66.554812 66.554812l0 64.065108C777.117147 234.290047 747.319493 264.087701 710.562335 264.087701z" p-id="13279" fill="#bfbfbf"></path><path d="M894.405433 169.087023l-91.285053 0 0 43.333948c0 47.01171-38.110993 85.122703-85.122703 85.122703l-14.869662 0c-47.01171 0-85.122703-38.110993-85.122703-85.122703l0-43.333948L437.035658 169.087023l0 43.333948c0 47.01171-38.110993 85.122703-85.122703 85.122703l-14.869662 0c-47.01171 0-85.122703-38.110993-85.122703-85.122703l0-43.333948-91.285053 0c-43.339064 0-78.597079 35.259038-78.597079 78.597079l0 597.377506c0 43.339064 35.259038 78.598102 78.597079 78.598102l733.769896 0c43.339064 0 78.597079-35.259038 78.597079-78.598102L973.002512 247.684102C973.002512 204.345038 937.743474 169.087023 894.405433 169.087023zM891.138016 841.795215 163.902954 841.795215 163.902954 366.914624l727.235063 0L891.138016 841.795215z" p-id="13280" fill="#bfbfbf"></path></svg>