<?xml version="1.0" standalone="no"?><!DOCTYPE svg PUBLIC "-//W3C//DTD SVG 1.1//EN" "http://www.w3.org/Graphics/SVG/1.1/DTD/svg11.dtd"><svg t="1535435305950" class="icon" style="" viewBox="0 0 1024 1024" version="1.1" xmlns="http://www.w3.org/2000/svg" p-id="1778" xmlns:xlink="http://www.w3.org/1999/xlink" width="32" height="32"><defs><style type="text/css"></style></defs><path d="M393.706667 639.082667l-316.224 105.386666A42.666667 42.666667 0 0 1 21.333333 704v-149.333333a42.666667 42.666667 0 0 1 21.504-37.034667l333.205334-190.421333-7.68-138.325334C363.882667 108.586667 426.026667 42.666667 506.389333 42.666667h11.242667c80.362667 0 142.485333 65.813333 138.026667 146.218666l-7.68 138.325334 333.184 190.421333A42.666667 42.666667 0 0 1 1002.666667 554.666667v149.333333a42.666667 42.666667 0 0 1-56.149334 40.469333l-316.224-105.386666-6.677333 108.16 98.474667 46.122666A42.666667 42.666667 0 0 1 746.666667 832v106.666667a42.666667 42.666667 0 0 1-51.925334 41.642666L512 939.733333l-182.741333 40.597334A42.666667 42.666667 0 0 1 277.333333 938.666667v-106.666667a42.666667 42.666667 0 0 1 24.576-38.634667l98.474667-46.122666-6.677333-108.16zM106.666667 644.8l312.704-104.234667a42.666667 42.666667 0 0 1 56.106666 37.845334l11.861334 192.533333a42.666667 42.666667 0 0 1-24.490667 41.258667L362.666667 859.136v26.346667l140.074666-31.146667a42.666667 42.666667 0 0 1 18.517334 0L661.333333 885.504v-26.346667l-100.181333-46.933333a42.666667 42.666667 0 0 1-24.490667-41.258667l11.882667-192.533333a42.666667 42.666667 0 0 1 56.085333-37.845333L917.333333 644.8v-65.365333l-334.613333-191.210667a42.666667 42.666667 0 0 1-21.418667-39.402667l9.152-164.672C572.202667 152.618667 548.949333 128 517.632 128h-11.264C475.093333 128 451.84 152.704 453.546667 184.149333l9.173333 164.672a42.666667 42.666667 0 0 1-21.44 39.402667L106.666667 579.434667v65.365333z" fill="#bfbfbf" p-id="1779"></path></svg>