<?xml version="1.0" encoding="UTF-8"?>
<svg width="17px" height="17px" viewBox="0 0 17 17" version="1.1" xmlns="http://www.w3.org/2000/svg" xmlns:xlink="http://www.w3.org/1999/xlink">
    <!-- Generator: Sketch 55.2 (78181) - https://sketchapp.com -->
    <title>hold-seat-fail</title>
    <desc>Created with Sketch.</desc>
    <g id="火车" stroke="none" stroke-width="1" fill="none" fill-rule="evenodd">
        <g id="占座弹框" transform="translate(-53.000000, -294.000000)" fill="#F56A00" fill-rule="nonzero">
            <g id="hold-seat-fail" transform="translate(53.000000, 294.000000)">
                <path d="M8.5,17 C3.805875,17 0,13.194125 0,8.5 C0,3.805875 3.805875,0 8.5,0 C13.194125,0 17,3.805875 17,8.5 C17,13.194125 13.194125,17 8.5,17 Z M8.5,2.7625 C7.95231763,2.7625 7.50833334,3.20648429 7.50833334,3.75416666 L7.50833334,9.42083334 C7.50833334,9.9685157 7.95231764,10.4125 8.5,10.4125 C9.04768236,10.4125 9.49166666,9.9685157 9.49166666,9.42083334 L9.49166666,3.75416666 C9.49166666,3.49116031 9.3871878,3.23892601 9.20121422,3.05295244 C9.01524065,2.86697887 8.76300635,2.7625 8.5,2.7625 Z M8.5,11.6875 C7.79583694,11.6875 7.225,12.2583369 7.225,12.9625 C7.225,13.6666631 7.79583694,14.2375 8.5,14.2375 C9.20416306,14.2375 9.775,13.6666631 9.775,12.9625 C9.775,12.2583369 9.20416306,11.6875 8.5,11.6875 L8.5,11.6875 Z" id="Icons-/-Glyphs-/-Notice-/-Uploder-fail"></path>
            </g>
        </g>
    </g>
</svg>