<?xml version="1.0" encoding="UTF-8"?>
<svg width="17px" height="17px" viewBox="0 0 17 17" version="1.1" xmlns="http://www.w3.org/2000/svg" xmlns:xlink="http://www.w3.org/1999/xlink">
    <!-- Generator: Sketch 55.2 (78181) - https://sketchapp.com -->
    <title>hold-seat-success</title>
    <desc>Created with Sketch.</desc>
    <g id="火车" stroke="none" stroke-width="1" fill="none" fill-rule="evenodd">
        <g id="占座弹框" transform="translate(-144.000000, -518.000000)">
            <g id="hold-seat-success" transform="translate(144.000000, 518.000000)">
                <circle id="Oval-7" fill="#8BC34A" cx="8.5" cy="8.5" r="8.25714286"></circle>
                <path d="M7.36946242,12.1408976 L4.57459415,9.20510381 C4.44461278,9.06781832 4.37142857,8.88039602 4.37142857,8.68480355 C4.37142857,8.48921107 4.44461278,8.30178878 4.57459415,8.16450329 C4.85031816,7.87593047 5.29277409,7.87593047 5.563308,8.16450329 L7.86414371,10.5829521 L12.2624282,5.96404866 C12.5329621,5.67547584 12.975418,5.67547584 13.251142,5.96404866 C13.5220003,6.25262148 13.5220003,6.71572869 13.251142,7.00430151 L8.35850064,12.1464604 C8.22333285,12.2787064 8.04715563,12.3524294 7.86414371,12.3533333 C7.67977854,12.3540029 7.50239025,12.2778269 7.36946242,12.1408976 L7.36946242,12.1408976 Z" id="Shape" fill="#FFFFFF" fill-rule="nonzero"></path>
            </g>
        </g>
    </g>
</svg>