<?xml version="1.0" encoding="UTF-8"?>
<svg width="12px" height="12px" viewBox="0 0 12 12" version="1.1" xmlns="http://www.w3.org/2000/svg" xmlns:xlink="http://www.w3.org/1999/xlink">
    <!-- Generator: Sketch 49 (51002) - http://www.bohemiancoding.com/sketch -->
    <title>停车位</title>
    <desc>Created with Sketch.</desc>
    <defs></defs>
    <g id="酒店" stroke="none" stroke-width="1" fill="none" fill-rule="evenodd">
        <g id="2" transform="translate(-237.000000, -209.000000)" fill="#9A9A9A" fill-rule="nonzero">
            <g id="wifi-(2)" transform="translate(208.000000, 209.000000)">
                <g id="停车位" transform="translate(29.000000, 0.000000)">
                    <path d="M6,0 C2.691,0 0,2.691 0,6 C0,9.309 2.691,12 6,12 C9.309,12 12,9.309 12,6 C12,2.691 9.309,0 6,0 Z M6,11.25 C3.105,11.25 0.75,8.895 0.75,6 C0.75,3.105 3.105,0.75 6,0.75 C8.895,0.75 11.25,3.105 11.25,6 C11.25,8.895 8.895,11.25 6,11.25 Z" id="Shape"></path>
                    <path d="M6.90647482,3.27272727 L4.36363636,3.27272727 L4.36363636,9.81818182 L5.14846305,9.81818182 L5.14846305,7.36363636 L6.90647482,7.36363636 C8.05232178,7.36363636 8.65977763,6.48981818 8.72727273,5.24781818 C8.68175278,4.09909091 8.07586658,3.27272727 6.90647482,3.27272727 Z M6.60353172,6.54545455 L5.14846305,6.54545455 L5.14846305,4.09090909 L6.63649444,4.09090909 C7.46841073,4.09090909 7.88436887,4.58018182 7.88436887,5.28381818 C7.88436887,6.05618182 7.45742315,6.54545455 6.60353172,6.54545455 Z" id="Shape"></path>
                </g>
            </g>
        </g>
    </g>
</svg>