<?xml version="1.0" encoding="UTF-8"?>
<svg width="24px" height="23px" viewBox="0 0 24 23" version="1.1" xmlns="http://www.w3.org/2000/svg" xmlns:xlink="http://www.w3.org/1999/xlink">
    <!-- Generator: Sketch 56.2 (81672) - https://sketch.com -->
    <title>trip-selected</title>
    <desc>Created with Sketch.</desc>
    <g id="酒店-龙光拼房" stroke="none" stroke-width="1" fill="none" fill-rule="evenodd">
        <g id="拼房关闭" transform="translate(-325.000000, -525.000000)">
            <g id="编组-4" transform="translate(315.000000, 515.000000)">
                <g id="trip-selected" transform="translate(6.000000, 6.000000)">
                    <g id="编组-2" transform="translate(4.000000, 4.000000)">
                        <path d="M9.12925634,17.9848866 L6,17.9848866 L6,19 C6,19.5522847 5.55228475,20 5,20 L4,20 C3.44771525,20 3,19.5522847 3,19 L3,17.9848866 L2.4000001,17.9848866 C1.07451664,17.9848866 0,16.91037 0,15.5848866 L0,6.27909329 C0,4.95360984 1.07451664,3.8790932 2.4000001,3.8790932 L5.15,3.8790932 L5.15,2.67002526 C5.15,1.19541103 6.33644544,0 7.80000007,0 L12.1999999,0 C13.6635546,0 14.85,1.19541103 14.85,2.67002526 L14.85,3.8790932 L17.5999999,3.8790932 C18.9254834,3.8790932 20,4.95360984 20,6.27909329 L20,8.37359822 C19.209578,8.13072245 18.3700549,8 17.5,8 C16.6299451,8 15.790422,8.13072245 15,8.37359822 L15,7.75 C15,7.33578644 14.6642136,7 14.25,7 C13.8357864,7 13.5,7.33578644 13.5,7.75 L13.5,8.99810129 C10.8221128,10.4289314 9,13.2516771 9,16.5 C9,17.006532 9.04430683,17.5027156 9.12925634,17.9848866 Z M8,2.01511335 C7.44771525,2.01511335 7,2.4628286 7,3.01511335 L7,4.0302267 L13,4.0302267 L13,3.01511335 C13,2.4628286 12.5522847,2.01511335 12,2.01511335 L8,2.01511335 Z M5.75,7 C5.33578644,7 5,7.33578644 5,7.75 L5,12.25 C5,12.6642136 5.33578644,13 5.75,13 C6.16421356,13 6.5,12.6642136 6.5,12.25 L6.5,7.75 C6.5,7.33578644 6.16421356,7 5.75,7 Z" id="形状结合" fill="#007AFF"></path>
                        <g id="编组" transform="translate(11.000000, 10.000000)">
                            <circle id="Oval-7" fill="#CCE4FF" cx="6.5" cy="6.5" r="6.5"></circle>
                            <path d="M2.75563458,7.19662271 C2.59208456,7.02204714 2.5,6.7837164 2.5,6.53499626 C2.5,6.28627612 2.59208456,6.04794537 2.75563458,5.87336981 C3.10256632,5.5064136 3.65928974,5.5064136 3.999691,5.87336981 L5.75187723,7.74872913 L9.25594358,4.17718921 C9.59634484,3.81023301 10.1530683,3.81023301 10.5,4.17718921 C10.8408094,4.54414541 10.8408094,5.1330438 10.5,5.5 L6.37390544,9.73692434 C6.20382958,9.90509146 5.98215331,9.99883951 5.75187723,10.0000264 C5.51989841,10.0008403 5.29669828,9.90397312 5.12944087,9.72985048 L2.75563458,7.19662271 Z" id="Shape" fill="#007AFF" fill-rule="nonzero"></path>
                        </g>
                    </g>
                    <rect id="矩形" fill="#D8D8D8" opacity="0" x="0" y="0" width="28" height="27"></rect>
                </g>
            </g>
        </g>
    </g>
</svg>