<?xml version="1.0" encoding="UTF-8"?>
<svg width="14px" height="11px" viewBox="0 0 14 11" version="1.1" xmlns="http://www.w3.org/2000/svg" xmlns:xlink="http://www.w3.org/1999/xlink">
    <!-- Generator: Sketch 49 (51002) - http://www.bohemiancoding.com/sketch -->
    <title>Shape</title>
    <desc>Created with Sketch.</desc>
    <defs></defs>
    <g id="酒店" stroke="none" stroke-width="1" fill="none" fill-rule="evenodd">
        <g id="2" transform="translate(-208.000000, -209.000000)" fill="#9A9A9A" fill-rule="nonzero">
            <g id="wifi-(2)" transform="translate(208.000000, 209.000000)">
                <path d="M13.8412827,2.69879242 C10.0638108,-0.899597474 3.93732286,-0.899597474 0.159851,2.69879242 C-0.0532836667,2.90182282 -0.0532836667,3.2301273 0.159851,3.43171777 C0.372985667,3.63474818 0.717628958,3.63474818 0.929252031,3.43171777 C4.28196615,0.237948752 9.71916754,0.237948752 13.0718817,3.43171777 C13.2850163,3.63474818 13.6296596,3.63474818 13.8412827,3.43171777 C14.0529058,3.2301273 14.0529058,2.90182282 13.8412827,2.69879242 Z M2.21108322,4.92780705 C1.99794855,5.13083745 1.99794855,5.45914193 2.21108322,5.6607324 C2.42421789,5.8637628 2.76886118,5.8637628 2.98048425,5.6607324 C5.19950333,3.54691233 8.79860717,3.54691233 11.0176263,5.6607324 C11.2307609,5.8637628 11.5754042,5.8637628 11.7870273,5.6607324 C12.000162,5.457702 12.000162,5.12939752 11.7870273,4.92780705 C9.14325047,2.4093661 4.85637164,2.4093661 2.21108322,4.92780705 Z M9.74486463,7.29217528 L9.74788782,7.28929542 C8.23629444,5.84936348 5.78600157,5.84936348 4.27591978,7.28929542 C4.06278511,7.49232582 4.06278511,7.8206303 4.27591978,8.02222077 C4.48905444,8.22525117 4.83369774,8.22525117 5.04532081,8.02222077 C6.13215645,6.98690971 7.89316274,6.98690971 8.97848679,8.02222077 L8.98150997,8.0193409 C8.99360272,8.03374022 9.00720706,8.04813954 9.022323,8.06253886 C9.23545766,8.26556926 9.58010095,8.26556926 9.79172403,8.06253886 C10.0048587,7.85950846 10.0048587,7.53120398 9.79172403,7.32961351 C9.7750965,7.31665412 9.75998057,7.30513467 9.74486463,7.29217528 Z M6.19866656,10.2224368 C6.19866656,10.6518731 6.5641188,11 7.01492698,11 C7.46573517,11 7.83118741,10.6518731 7.83118741,10.2224368 C7.83118741,9.79300044 7.46573517,9.44487352 7.01492698,9.44487352 C6.5641188,9.44487352 6.19866656,9.79300044 6.19866656,10.2224368 Z" id="Shape"></path>
            </g>
        </g>
    </g>
</svg>