<?xml version="1.0" encoding="UTF-8"?>
<svg width="160px" height="57px" viewBox="0 0 160 57" version="1.1" xmlns="http://www.w3.org/2000/svg" xmlns:xlink="http://www.w3.org/1999/xlink">
    <!-- Generator: Sketch 49 (51002) - http://www.bohemiancoding.com/sketch -->
    <title>Artboard 3 Copy 2</title>
    <desc>Created with Sketch.</desc>
    <defs>
        <linearGradient x1="68.7074988%" y1="14.8201577%" x2="3.85471442%" y2="67.8631535%" id="linearGradient-1">
            <stop stop-color="#2A9FBF" offset="0%"></stop>
            <stop stop-color="#4B9DB7" offset="100%"></stop>
        </linearGradient>
        <linearGradient x1="44.020094%" y1="83.6067685%" x2="3.89186248%" y2="40.3937461%" id="linearGradient-2">
            <stop stop-color="#C52D1D" offset="0%"></stop>
            <stop stop-color="#4B9DB7" offset="100%"></stop>
        </linearGradient>
        <path d="M24.9729447,0.0917560976 C18.0069045,0.0917560976 12.2600201,5.70834146 11.5806633,12.8785244 L8.78621608,12.8785244 C3.95633166,12.8785244 -0.105326633,17.054122 0.00329145729,22.1528415 C0.100718593,26.7573293 3.08672864,30.1613415 8.27933166,31.2672805 C16.9924774,33.1232561 35.108,30.7209146 49.8583367,20.7201951 L44.0285075,11.7962195 C26.2072412,30.7758293 9.79537688,28.2518415 8.94288945,28.0634634 C5.11624121,27.223061 3.16177387,25.1613293 3.10713568,22.0555244 C3.04854774,18.8134756 5.61654271,16.1567195 8.68813065,16.1567195 L12.8636734,16.1567195 C13.8326784,16.1567195 14.6186784,15.3281341 14.6186784,14.3042195 C14.6186784,8.26639024 19.2543668,3.37064634 24.9729447,3.37064634 L25.2553518,3.37064634 C30.5151005,3.37064634 34.8703568,7.53234146 35.5253568,12.9014634 C35.6234422,13.7085 36.2876583,14.3042195 37.0585176,14.3042195 C37.9932915,14.3042195 38.7226784,13.4360122 38.6015528,12.4579756 C37.7418241,5.48937805 32.0844673,0.0917560976 25.2553518,0.0917560976 L24.9729447,0.0917560976 Z" id="path-3"></path>
        <path d="M8.94288945,16.9415122 C5.11624121,16.1011098 3.16177387,14.039378 3.10713568,10.9335732 C3.04854774,7.69152439 -0.105326633,5.93217073 0.00329145729,11.0308902 C0.100718593,15.635378 3.08672864,19.0393902 8.27933166,20.1453293 C16.9924774,22.0013049 35.108,19.5989634 49.8583367,9.5982439 L44.0285075,0.674268293 C26.2072412,19.653878 9.79537688,17.1298902 8.94288945,16.9415122" id="path-5"></path>
        <polygon id="path-7" points="0.323963333 0.518421896 8.83756281 0.518421896 8.83756281 9.89290045 0.323963333 9.89290045"></polygon>
        <polygon id="path-9" points="0 56.304878 130.621482 56.304878 130.621482 0.0917560976 0 0.0917560976"></polygon>
    </defs>
    <g id="Artboard-3-Copy-2" stroke="none" stroke-width="1" fill="none" fill-rule="evenodd">
        <path d="M38.0403322,1 C31.0551697,1 25.2925096,6.61658537 24.6112879,13.7867683 L21.8091697,13.7867683 C16.9660268,13.7867683 12.8932189,17.9623659 13.0021352,23.0610854 C13.0991697,27.6655732 16.0940367,31.0695854 21.3008938,32.1755244 C30.0379579,34.0315 48.2032091,31.6291585 62.9940367,21.628439 L57.1482042,12.7044634 C39.278017,31.6840732 22.8211007,29.1600854 21.9662731,28.9717073 C18.1291204,28.132 16.1692879,26.0695732 16.1144997,22.9637683 C16.055751,19.7217195 18.6307953,17.0649634 21.710815,17.0649634 L25.8978199,17.0649634 C26.869485,17.0649634 27.6576426,16.236378 27.6576426,15.2124634 C27.6576426,9.17463415 32.3060564,4.27889024 38.0403322,4.27889024 L38.3235145,4.27889024 C43.5977017,4.27889024 47.9649135,8.44058537 48.6217116,13.8097073 C48.7200662,14.6167439 49.3861056,15.2124634 50.159081,15.2124634 C51.0964209,15.2124634 51.8278101,14.3442561 51.707012,13.3662195 C50.8442633,6.39762195 45.1713766,1 38.3235145,1 L38.0403322,1 Z" id="Clip-2" fill="url(#linearGradient-1)"></path>
        <path d="M57.5,12.5 C39.6298128,31.4796098 22.8548276,29.188378 22,29 C18.1628473,28.1602927 16.1699025,26.3651098 16.1151143,23.2593049 C16.0563655,20.0172561 12.8938335,18.2579024 13.0027498,23.356622 C13.1004443,27.9611098 16.0946512,31.365122 21.3015084,32.471061 C30.0385724,34.3270366 48.2038236,31.9246951 62.9946512,21.9239756 L57.5,12.5 Z" id="Clip-2" fill="url(#linearGradient-2)"></path>
        <g id="Page-1" transform="translate(37.000000, 8.000000)">
            <g id="Group-3">
                <polygon id="Clip-2" points="0 0.261615385 26.5241057 0.261615385 26.5241057 20 0 20"></polygon>
                <path d="M20.1267042,4.86923077 C14.9982976,10.0265184 9.97312259,13.5941543 5.35896359,16.0738893 C4.38745062,16.5971941 3.43352477,17.0706937 2.5,17.5 C1.99700813,18.4989088 2.04150834,19.8360273 2.7295168,21.0082019 C3.32818265,22.0288566 4.52567309,22.8113016 5.5,23 C6.28860684,22.7993765 7.0807311,22.5861263 7.87777976,22.356742 C14.1423149,20.5511302 20.3827728,17.6993165 26.3560651,13.8748426 L20.1267042,4.86923077 Z" id="Fill-1" fill="#F7B400"></path>
            </g>
            <path d="M26.5,14 C24.5941809,15.0428023 21.6452726,13.4465926 20.04972,10.8895192 C18.4534425,8.33516309 18.7064401,5.41667541 20.6129842,4.37251443 C22.520978,3.3290328 25.3568716,4.55254218 26.9531492,7.10893631 C28.5458021,9.66397173 28.4050942,12.9551597 26.5,14 Z" id="Fill-4" fill="#EF8200"></path>
        </g>
        <g id="Page-1" transform="translate(16.000000, -1.000000)">
            <g id="Group-3" transform="translate(0.000000, 0.603227)">
                <mask id="mask-4" fill="white">
                    <use xlink:href="#path-3"></use>
                </mask>
                <g id="Clip-2"></g>
                <path d="M24.9729447,0.0917560976 C18.0069045,0.0917560976 12.2600201,5.70834146 11.5806633,12.8785244 L8.78621608,12.8785244 C3.95633166,12.8785244 -0.105326633,17.054122 0.00329145729,22.1528415 C0.100718593,26.7573293 3.08672864,30.1613415 8.27933166,31.2672805 C16.9924774,33.1232561 35.108,30.7209146 49.8583367,20.7201951 L44.0285075,11.7962195 C26.2072412,30.7758293 9.79537688,28.2518415 8.94288945,28.0634634 C5.11624121,27.223061 3.16177387,25.1613293 3.10713568,22.0555244 C3.04854774,18.8134756 5.61654271,16.1567195 8.68813065,16.1567195 L12.8636734,16.1567195 C13.8326784,16.1567195 14.6186784,15.3281341 14.6186784,14.3042195 C14.6186784,8.26639024 19.2543668,3.37064634 24.9729447,3.37064634 L25.2553518,3.37064634 C30.5151005,3.37064634 34.8703568,7.53234146 35.5253568,12.9014634 C35.6234422,13.7085 36.2876583,14.3042195 37.0585176,14.3042195 C37.9932915,14.3042195 38.7226784,13.4360122 38.6015528,12.4579756 C37.7418241,5.48937805 32.0844673,0.0917560976 25.2553518,0.0917560976 L24.9729447,0.0917560976 Z" id="Fill-1" mask="url(#mask-4)"></path>
            </g>
            <g id="Group-6" transform="translate(0.000000, 11.725178)">
                <mask id="mask-6" fill="white">
                    <use xlink:href="#path-5"></use>
                </mask>
                <g id="Clip-5"></g>
                <path d="M8.94288945,16.9415122 C5.11624121,16.1011098 3.16177387,14.039378 3.10713568,10.9335732 C3.04854774,7.69152439 -0.105326633,5.93217073 0.00329145729,11.0308902 C0.100718593,15.635378 3.08672864,19.0393902 8.27933166,20.1453293 C16.9924774,22.0013049 35.108,19.5989634 49.8583367,9.5982439 L44.0285075,0.674268293 C26.2072412,19.653878 9.79537688,17.1298902 8.94288945,16.9415122" id="Fill-4" mask="url(#mask-6)"></path>
            </g>
            <g id="Group-55" transform="translate(0.000000, 0.603227)">
                <g id="Group-13" transform="translate(121.783920, 22.243902)">
                    <mask id="mask-8" fill="white">
                        <use xlink:href="#path-7"></use>
                    </mask>
                    <g id="Clip-12"></g>
                    <path d="M0.444346734,1.98387805 C2.0571608,5.12165854 4.59948241,7.88963415 7.46963317,9.74352439 C8.48669347,10.4004146 9.41225126,8.71682927 8.39979899,8.06271951 C5.79033166,6.37704878 3.50211055,3.85236585 2.03609548,1.00167073 C1.46864824,-0.101487805 -0.123100503,0.880719512 0.444346734,1.98387805" id="Fill-11" fill="#22A1BE" mask="url(#mask-8)"></path>
                </g>
                <path d="M127.157092,20.2993683 L122.007278,20.2993683 C120.818404,20.2993683 120.818404,22.2457098 122.007278,22.2457098 L126.78779,22.2457098 C127.225554,22.2457098 127.53561,22.7281244 127.346022,23.1445024 C126.02878,26.0396854 123.683946,28.5358683 121.41679,30.4585756 C120.489916,31.2454537 121.803208,32.6134537 122.720866,31.8356122 C125.24278,29.6953317 127.798926,26.8592341 129.182655,23.6088439 C129.843579,22.0573317 128.767931,20.2993683 127.157092,20.2993683" id="Fill-14" fill="#22A1BE"></path>
                <path d="M111.874987,16.9086329 L117.604098,16.9086329 C118.792972,16.9086329 118.792972,14.9615963 117.604098,14.9615963 L111.874987,14.9615963 C110.685455,14.9615963 110.685455,16.9086329 111.874987,16.9086329" id="Fill-16" fill="#22A1BE"></path>
                <path d="M112.571855,26.2092256 C114.388081,24.8919695 116.203649,23.5761037 118.019217,22.2595427 C118.99283,21.5539939 118.071222,19.8662378 117.088392,20.5780427 C115.273483,21.8952988 113.457257,23.2118598 111.641689,24.5284207 C110.668076,25.2339695 111.589026,26.9217256 112.571855,26.2092256" id="Fill-18" fill="#22A1BE"></path>
                <path d="M126.764355,12.6971671 L121.821245,12.6971671 C120.243978,12.6971671 118.953069,14.0596061 118.953069,15.7251183 L118.953069,31.18185 C118.953069,32.4365451 120.796285,32.4365451 120.796285,31.18185 L120.796285,15.957289 C120.796285,15.2315817 121.353199,14.6435085 122.041114,14.6435085 L126.544486,14.6435085 C127.231742,14.6435085 127.789315,15.2315817 127.789315,15.957289 C127.789315,16.6836915 127.231742,17.2717646 126.544486,17.2717646 L124.021255,17.2717646 C122.831722,17.2717646 122.831722,19.2188012 124.021255,19.2188012 L126.764355,19.2188012 C128.341622,19.2188012 129.631873,17.8556671 129.631873,16.1894598 L129.631873,15.7251183 C129.631873,14.0596061 128.341622,12.6971671 126.764355,12.6971671" id="Fill-20" fill="#22A1BE"></path>
                <path d="M113.986128,11.9191866 L113.986128,29.1957476 C113.986128,30.2022841 113.469369,30.2085402 113.092168,30.2085402 L112.520771,30.2085402 C111.332555,30.2085402 111.332555,32.1548817 112.520771,32.1548817 L113.53849,32.1548817 C114.79846,32.1548817 115.830003,31.0663207 115.830003,29.7358573 L115.830003,11.9191866 C115.830003,10.6637963 113.986128,10.6637963 113.986128,11.9191866" id="Fill-22" fill="#22A1BE"></path>
                <path d="M104.597115,30.3066915 C101.811883,28.577228 99.319592,25.727228 98.2334111,22.4545939 C97.8430442,21.2777524 96.0617075,21.7838012 96.4560241,22.9717646 C97.7028281,26.7295939 100.44922,29.990411 103.66629,31.9874963 C104.693225,32.6249232 105.620758,30.9420329 104.597115,30.3066915" id="Fill-24" fill="#22A1BE"></path>
                <path d="M91.5965166,23.1647305 L104.246904,23.1647305 C105.43512,23.1647305 105.43512,21.218389 104.246904,21.218389 L91.5965166,21.218389 C90.4069839,21.218389 90.4069839,23.1647305 91.5965166,23.1647305" id="Fill-26" fill="#22A1BE"></path>
                <path d="M86.5275407,19.6714646 L91.0368372,19.6714646 C92.2257116,19.6714646 92.2257116,17.724428 91.0368372,17.724428 L86.5275407,17.724428 C85.3386663,17.724428 85.3386663,19.6714646 86.5275407,19.6714646" id="Fill-28" fill="#22A1BE"></path>
                <path d="M100.144694,14.1966841 L92.8600412,14.1966841 C91.6711668,14.1966841 91.6711668,16.1437207 92.8600412,16.1437207 L100.072282,16.1437207 C100.688443,16.1437207 101.188745,16.6720134 101.188745,17.3226476 L101.188745,21.6706354 C101.188745,22.9267207 103.032619,22.9267207 103.032619,21.6706354 L103.032619,17.2461841 C103.032619,15.5688549 101.733152,14.1966841 100.144694,14.1966841" id="Fill-30" fill="#22A1BE"></path>
                <path d="M98.0142,21.4880268 L98.0142,11.918978 C98.0142,10.6642829 96.1703256,10.6642829 96.1703256,11.918978 L96.1703256,21.4880268 C96.1703256,22.7434171 98.0142,22.7434171 98.0142,21.4880268" id="Fill-32" fill="#22A1BE"></path>
                <path d="M92.5582146,31.8354037 C95.0511643,29.4177695 97.2610487,26.1263671 97.9897774,22.5680378 C98.2405864,21.343928 96.4638578,20.8232817 96.2123905,22.050172 C95.5455412,25.3033427 93.5311693,28.25205 91.2547975,30.4590622 C90.377295,31.3091963 91.6846618,32.6827573 92.5582146,31.8354037" id="Fill-34" fill="#22A1BE"></path>
                <path d="M90.1095678,31.181711 L90.1095678,11.9191866 C90.1095678,10.6637963 88.2656935,10.6637963 88.2656935,11.9191866 L88.2656935,31.181711 C88.2656935,32.4371012 90.1095678,32.4371012 90.1095678,31.181711" id="Fill-36" fill="#22A1BE"></path>
                <path d="M87.3883226,24.0363439 L87.3883226,15.4564537 C87.3883226,14.2017585 85.5444482,14.2017585 85.5444482,15.4564537 L85.5444482,24.0363439 C85.5444482,25.2917341 87.3883226,25.2917341 87.3883226,24.0363439" id="Fill-38" fill="#22A1BE"></path>
                <path d="M60.9188181,14.7689085 L75.9574864,14.7689085 C77.1470191,14.7689085 77.1470191,12.8225671 75.9574864,12.8225671 L60.9188181,12.8225671 C59.7299437,12.8225671 59.7299437,14.7689085 60.9188181,14.7689085" id="Fill-40" fill="#22A1BE"></path>
                <path d="M59.5273216,21.1818256 L77.3492462,21.1818256 C78.5387789,21.1818256 78.5387789,19.234789 77.3492462,19.234789 L59.5273216,19.234789 C58.3384472,19.234789 58.3384472,21.1818256 59.5273216,21.1818256" id="Fill-42" fill="#22A1BE"></path>
                <path d="M73.9962387,30.7166744 L63.1864347,30.7166744 C62.3411884,30.7166744 61.583495,30.2551134 61.1595553,29.4814427 C60.7349573,28.707772 60.734299,27.7832598 61.1556055,27.0088939 L64.8308467,19.7434793 L66.4067965,20.6999671 L62.7315553,27.9660768 C62.5959472,28.2163207 62.6867915,28.4366744 62.7328719,28.5207841 C62.778294,28.6028085 62.9145603,28.7967476 63.1864347,28.7967476 L73.9962387,28.7967476 C74.258897,28.7967476 74.3958216,28.6139305 74.441902,28.5346866 C74.4886407,28.4561378 74.5834347,28.2448207 74.4662588,27.9959671 L72.9778618,24.8331622 C72.754701,24.3583939 72.9383643,23.7821378 73.3873191,23.5471866 C73.8369322,23.3108451 74.3826558,23.504089 74.6064749,23.9795524 L76.0942136,27.1409671 C76.4575905,27.9146378 76.418093,28.8127354 75.9869121,29.5453939 C75.5570477,30.2780524 74.8125201,30.7166744 73.9962387,30.7166744" id="Fill-44" fill="#22A1BE"></path>
                <mask id="mask-10" fill="white">
                    <use xlink:href="#path-9"></use>
                </mask>
                <g id="Clip-47"></g>
                <path d="M13.1092161,52.5679024 L16.1353819,52.5679024 L16.1353819,50.4025976 L13.1092161,50.4025976 L13.1092161,52.5679024 Z M11.8788693,53.7058171 L17.3663869,53.7058171 L17.3663869,49.265378 L11.8788693,49.265378 L11.8788693,53.7058171 Z M14.3402211,48.4520854 L14.1354925,47.2620366 L15.4171859,47.2620366 C15.929995,47.2967927 16.2038442,47.0270854 16.2380754,46.4487439 C16.2380754,46.2318659 16.2545327,45.9614634 16.2894221,45.6361463 L16.2894221,45.0404268 L14.2895327,45.0404268 C14.3231055,46.7017683 13.587794,47.9474268 12.083598,48.7767073 C11.8439799,48.4520854 11.5707889,48.1462317 11.2633668,47.8563659 C12.5279447,47.2064268 13.1434472,46.2694024 13.1092161,45.0404268 L11.5194422,45.0404268 L11.5194422,43.8489878 L17.5204271,43.8489878 C17.5204271,44.5357683 17.4855377,45.4561098 17.4170754,46.6114024 C17.3828442,47.8382927 16.8706935,48.4347073 15.8793065,48.3978659 L15.1091055,48.3978659 C14.8023417,48.4347073 14.545608,48.4520854 14.3402211,48.4520854 Z M6.18596482,46.2318659 L6.18596482,45.0404268 L8.0838191,45.0404268 L8.0838191,43.3074878 L9.31416583,43.3074878 L9.31416583,45.0404268 L10.9552864,45.0404268 L10.9552864,46.2318659 L9.31416583,46.2318659 L9.31416583,47.9655 L11.2113618,47.9655 L11.2113618,49.1555488 L9.7249397,49.1555488 L9.7249397,51.1067561 L11.2113618,51.1067561 L11.2113618,52.2975 L9.7249397,52.2975 L9.7249397,54.4641951 C10.2706633,54.6080854 11.0066332,54.6810732 11.9295578,54.6810732 L17.2123467,54.6810732 L18.1359296,54.6810732 C17.9305427,55.1850366 17.8100754,55.6007195 17.7771608,55.9260366 C15.1091055,55.9260366 13.1092161,55.9072683 11.7755176,55.8718171 C9.45043216,55.9072683 7.96269347,55.2573293 7.31361809,53.9226951 C7.17735176,54.7526707 6.92061809,55.5284268 6.54473367,56.2506585 C6.34000503,56.070622 6.03192462,55.763378 5.62115075,55.3310122 C6.23731156,54.2473171 6.5269598,52.4427805 6.49338693,49.914622 L7.62169849,50.0223659 C7.65527136,50.8168902 7.62169849,51.539122 7.51900503,52.1897561 C7.82708543,52.8751463 8.1680804,53.3999634 8.54462312,53.7600366 L8.54462312,49.1555488 L5.77519095,49.1555488 L5.77519095,47.9655 L8.0838191,47.9655 L8.0838191,46.2318659 L6.18596482,46.2318659 Z" id="Fill-46" fill="#22A1BE" mask="url(#mask-10)"></path>
                <path d="M31.9298347,45.4730707 C31.6217543,45.0052537 31.2452116,44.4804366 30.8015231,43.9027902 L31.5704075,43.4162049 C31.9805231,43.7769732 32.391297,44.2649488 32.8014126,44.8780463 L31.9298347,45.4730707 Z M27.2112015,52.6224 L26.5443523,51.6485341 C26.7833121,51.4671073 26.8860055,51.0882659 26.8517744,50.5099244 L26.8517744,45.5822049 L29.2624377,45.5822049 C29.2282065,45.1123024 29.2117492,44.3553146 29.2117492,43.3077659 L30.3394025,43.3077659 C30.3394025,44.0654488 30.3565181,44.8238268 30.3907492,45.5822049 L33.2115281,45.5822049 L33.2115281,46.8271683 L30.4427543,46.8271683 C30.5447894,47.9838512 30.6474829,48.9396439 30.7501764,49.6987171 C31.1260608,49.1203756 31.4677141,48.4162171 31.7757945,47.5869366 L32.8014126,48.0728268 C32.2886035,49.264961 31.740905,50.3125098 31.160292,51.2140829 C31.2629854,51.5394 31.3992518,51.8827902 31.5704075,52.2428634 C31.7073322,52.4965829 31.8442568,52.6224 31.9805231,52.6224 C32.1174477,52.5501073 32.2030256,52.3874488 32.2372568,52.1344244 C32.3050608,51.8459488 32.3735231,51.2877659 32.4426437,50.4564 L32.4426437,50.347961 C32.8185281,50.6009854 33.109493,50.7629488 33.3142216,50.8352415 C33.2799905,51.4851805 33.1779553,52.1538878 33.0067995,52.8385829 C32.8698749,53.5622049 32.5275633,53.9410463 31.9805231,53.9764976 C31.2965583,53.9410463 30.7501764,53.4169244 30.3394025,52.4062171 L30.3394025,52.3519976 C29.7239,53.1096805 29.0399352,53.8319122 28.2881663,54.5179976 L27.4165884,53.7054 C28.4422065,52.7676805 29.2624377,51.8827902 29.8779402,51.0514244 C29.6034327,50.1130098 29.4164779,48.7046927 29.3137844,46.8271683 L28.032091,46.8271683 L28.032091,50.2944366 C28.0656638,50.2582902 28.1861312,50.1310829 28.3908598,49.9149 C28.6989402,49.6271195 28.9036688,49.4269244 29.0063623,49.3184854 C29.0399352,49.5715098 29.0912819,49.8794488 29.1597442,50.239522 C29.1933171,50.3841073 29.2117492,50.4932415 29.2117492,50.564839 C28.5271261,51.1786317 28.032091,51.6839854 27.7240106,52.0809 C27.6548899,52.1177415 27.5186236,52.2616317 27.313895,52.5146561 C27.2790055,52.5501073 27.2447744,52.5862537 27.2112015,52.6224 Z M21.4156035,46.2321439 L21.4156035,45.0407049 L23.3134578,45.0407049 L23.3134578,43.3077659 L24.5444628,43.3077659 L24.5444628,45.0407049 L26.1849251,45.0407049 L26.1849251,46.2321439 L24.5444628,46.2321439 L24.5444628,47.965778 L26.4416588,47.965778 L26.4416588,49.1558268 L24.9545784,49.1558268 L24.9545784,51.106339 L26.2882769,51.106339 L26.2882769,52.2970829 L24.9545784,52.2970829 L24.9545784,54.4644732 C25.5009603,54.6083634 26.2369302,54.6806561 27.1598548,54.6806561 L32.4426437,54.6806561 L33.3655683,54.6806561 C33.1601814,55.1853146 33.0403724,55.6003024 33.0067995,55.9256195 C30.3394025,55.9256195 28.3388548,55.9075463 27.0058146,55.8720951 C24.6800709,55.9075463 23.1929905,55.2569122 22.5439151,53.922278 C22.4069905,54.7529488 22.1509151,55.5287049 21.7743724,56.2509366 C21.5696437,56.0702049 21.2615633,55.7636561 20.8514477,55.3312902 C21.4669503,54.2475951 21.7572568,52.4423634 21.7236839,49.9149 L22.8513372,50.0226439 C22.8849101,50.8164732 22.8513372,51.5394 22.749302,52.189339 C23.0567241,52.8747293 23.3983774,53.3995463 23.7749201,53.7603146 L23.7749201,49.1558268 L21.0054879,49.1558268 L21.0054879,47.965778 L23.3134578,47.965778 L23.3134578,46.2321439 L21.4156035,46.2321439 Z" id="Fill-48" fill="#22A1BE" mask="url(#mask-10)"></path>
                <path d="M46.6986693,49.9689805 L43.8265437,49.9689805 C44.2366593,51.0519805 44.7152372,51.9368707 45.2629357,52.622261 C45.8777799,51.864578 46.3563578,50.9796878 46.6986693,49.9689805 Z M42.1340764,54.9516146 C43.0234281,54.5547 43.7574231,54.1035659 44.3400111,53.5975171 C43.7574231,52.8752854 43.1939256,51.7756024 42.6468854,50.2942976 L43.4164281,49.9689805 L42.1340764,49.9689805 L42.1340764,54.9516146 Z M47.8269809,56.0888341 C46.8013628,55.546639 45.9462422,55.0232122 45.2629357,54.5178585 C44.613202,55.0232122 43.8087698,55.5654073 42.8522724,56.1423585 C42.7153477,55.9616268 42.4757296,55.6008585 42.1340764,55.0593585 L42.1340764,56.2507976 L40.8010362,56.2507976 L40.8010362,43.9026512 L47.9296744,43.9026512 C47.9296744,44.1556756 47.9125588,44.517139 47.8783276,44.9870415 C47.8783276,45.4562488 47.8605538,45.816322 47.8269809,46.0700415 C47.7585186,47.1891878 47.1423578,47.7306878 45.9804734,47.6945415 C45.5703578,47.7306878 44.8343879,47.7480659 43.7758553,47.7480659 C43.7403075,47.3872976 43.6731618,46.9903829 43.5698101,46.557322 L45.4676643,46.557322 C46.1509709,46.5934683 46.510398,46.3765902 46.5446291,45.9073829 L46.5446291,45.5820659 C46.578202,45.4027244 46.5959759,45.2574439 46.5959759,45.1490049 L42.1340764,45.1490049 L42.1340764,48.723322 L47.9810211,48.723322 L47.9810211,50.0225049 C47.5360161,51.430822 46.9376291,52.6048829 46.1858603,53.5439927 C46.8013628,54.0486512 47.6044784,54.5011756 48.5965236,54.8967 C48.527403,55.0412854 48.4082523,55.2400902 48.2377548,55.4931146 C48.0659407,55.7815902 47.9296744,55.9797 47.8269809,56.0888341 Z M36.3384784,47.2058707 L36.3384784,45.9073829 L37.7742121,45.9073829 L37.7742121,43.3611512 L39.0572221,43.3611512 L39.0572221,45.9073829 L40.2882271,45.9073829 L40.2882271,47.2058707 L39.0572221,47.2058707 L39.0572221,49.4810049 L40.2362221,49.1556878 C40.2362221,49.698578 40.2533377,50.1497122 40.2882271,50.5097854 C40.1855337,50.5466268 39.9801467,50.6196146 39.6720663,50.7266634 C39.3982171,50.7996512 39.1928302,50.8531756 39.0572221,50.8886268 L39.0572221,54.6262976 C39.0901367,55.5285659 38.6635638,55.9984683 37.7742121,56.0353098 C37.4674482,56.0700659 37.0566744,56.0888341 36.5438653,56.0888341 L36.2877899,54.6805171 C36.4925186,54.7159683 36.7828251,54.7340415 37.1593678,54.7340415 C37.6030563,54.7694927 37.8084432,54.5908463 37.7742121,54.1925415 L37.7742121,51.2688585 L36.2877899,51.6483951 L36.1337497,50.1851634 C36.2015538,50.1851634 36.2877899,50.1677854 36.3898251,50.1309439 C36.7314784,50.0593463 37.1929407,49.9522976 37.7742121,49.806322 L37.7742121,47.2058707 L36.3384784,47.2058707 Z" id="Fill-49" fill="#22A1BE" mask="url(#mask-10)"></path>
                <path d="M61.8265362,46.5021988 L61.0056467,45.6360768 C61.6211492,44.9868329 62.185305,44.3730402 62.6981141,43.7946988 L63.6210387,44.6066012 C63.4847724,44.7518817 63.2793854,44.9687598 63.0061945,45.2572354 C62.5263,45.7980402 62.1339583,46.2137232 61.8265362,46.5021988 Z M57.5700236,52.1896866 L61.9292296,52.1896866 L61.9292296,50.7820646 L57.5700236,50.7820646 L57.5700236,52.1896866 Z M57.5700236,49.5899305 L61.9292296,49.5899305 L61.9292296,48.2351378 L57.5700236,48.2351378 L57.5700236,49.5899305 Z M56.2870136,56.1970646 L56.2870136,46.93665 L59.1077925,46.93665 L59.1077925,43.3074183 L60.441491,43.3074183 L60.441491,46.93665 L63.2622698,46.93665 L63.2622698,54.3556866 C63.2958427,55.4734427 62.7494608,56.0351012 61.6211492,56.0351012 C61.074109,56.0705524 60.5099533,56.0886256 59.9286819,56.0886256 C59.8259884,55.5471256 59.7404106,55.1133695 59.6726065,54.7894427 L61.1083402,54.7894427 C61.6896116,54.8248939 61.9621442,54.5544915 61.9285714,53.9768451 L61.9285714,53.3811256 L57.5700236,53.3811256 L57.5700236,56.1970646 L56.2870136,56.1970646 Z M57.5180186,46.5021988 C57.0052095,45.7813573 56.4746266,45.1307232 55.9282447,44.5530768 L56.8511693,43.7946988 C57.4666719,44.4453329 58.0308276,45.0591256 58.5436367,45.6360768 L57.5180186,46.5021988 Z M52.0811894,48.344272 C51.8079985,47.8750646 51.5683804,47.4774549 51.3636518,47.1528329 C52.0127271,45.9975402 52.5433101,44.6983573 52.9534256,43.2538939 L54.2357774,43.4700768 C54.2015462,43.5430646 54.1495412,43.6695768 54.0817372,43.8489183 C54.0126166,44.1735402 53.8763503,44.5718451 53.6716216,45.0403573 L55.7228578,45.0403573 L55.7228578,46.2317963 L53.2101593,46.2317963 C53.0047724,46.6648573 52.7822698,47.0986134 52.5433101,47.5309793 L55.4667824,47.5309793 L55.4667824,48.7231134 L54.1844307,48.7231134 L54.1844307,50.3476134 L55.6721693,50.3476134 L55.6721693,51.5390524 L54.1844307,51.5390524 L54.1844307,54.0852841 L55.5688176,53.0565037 C55.6030487,53.2003939 55.6372799,53.4165768 55.6721693,53.7050524 C55.7057422,53.9949183 55.7228578,54.2291744 55.7228578,54.409211 C55.2785111,54.5913329 54.6801241,54.9694793 53.9283553,55.5471256 C53.7565412,55.6562598 53.5511543,55.8356012 53.3121945,56.0886256 L52.5946568,54.9514061 C52.8329583,54.6990768 52.9534256,54.3383085 52.9534256,53.867711 L52.9534256,51.5390524 L51.4663452,51.5390524 L51.4663452,50.3476134 L52.9534256,50.3476134 L52.9534256,48.7231134 L52.1331945,48.7231134 L52.1331945,48.2907476 L52.0811894,48.344272 Z" id="Fill-50" fill="#22A1BE" mask="url(#mask-10)"></path>
                <path d="M80.6446533,48.1816829 L82.9526231,48.1816829 L82.9526231,45.3657439 L80.6446533,45.3657439 L80.6446533,48.1816829 Z M79.4129899,49.3182073 L84.1829698,49.3182073 L84.1829698,44.1736098 L79.4129899,44.1736098 L79.4129899,49.3182073 Z M75.3618643,54.6810732 L81.8756583,54.6810732 L81.8756583,53.488939 L75.3618643,53.488939 L75.3618643,54.6810732 Z M75.3618643,52.514378 L81.8756583,52.514378 L81.8756583,51.3764634 L75.3618643,51.3764634 L75.3618643,52.514378 Z M78.1319548,50.239939 C77.7211809,49.914622 77.1570251,49.4808659 76.4381709,48.940061 C76.2334422,48.7600244 76.0616281,48.6342073 75.9253618,48.5605244 C75.6172814,49.1388659 75.0030955,49.6991341 74.0788543,50.239939 L78.1319548,50.239939 Z M78.1319548,50.239939 L83.2593869,50.239939 L83.2593869,56.2506585 L81.875,56.2506585 L81.875,55.6563293 L75.3618643,55.6563293 L75.3618643,56.2506585 L74.0281658,56.2506585 L74.0281658,50.2941585 C73.7536583,50.4025976 73.4804673,50.5464878 73.2072764,50.7265244 C72.9683166,50.331 72.7109246,49.9521585 72.438392,49.59 C73.8741256,49.0485 74.7634774,48.3978659 75.1044724,47.640878 L72.5410854,47.640878 L72.5410854,46.5571829 L75.3618643,46.5571829 C75.4296683,46.1964146 75.4632412,45.7981098 75.4632412,45.3657439 L74.2335528,45.3657439 C73.9939347,45.7265122 73.669397,46.1067439 73.2586231,46.5022683 C73.1901608,46.4299756 73.1045829,46.3403049 73.003206,46.2318659 C72.9334271,46.1234268 72.7458141,45.9260122 72.438392,45.6361463 C73.1901608,44.9514512 73.7207437,44.1388537 74.0281658,43.1990488 L75.2585126,43.3074878 C75.1564774,43.6696463 75.0188945,43.9942683 74.848397,44.283439 L78.5414121,44.283439 L78.5414121,45.3657439 L76.745593,45.3657439 C76.745593,45.5096341 76.7284774,45.7091341 76.6949045,45.9614634 C76.6949045,46.2513293 76.6777889,46.4487439 76.6442161,46.5571829 L78.9001809,46.5571829 L78.9001809,47.640878 L76.4908342,47.640878 C76.865402,47.8932073 77.4466734,48.2727439 78.2333317,48.7767073 C78.5065226,48.9581341 78.7119095,49.0853415 78.8494925,49.1555488 L78.1319548,50.239939 Z" id="Fill-51" fill="#22A1BE" mask="url(#mask-10)"></path>
                <path d="M96.2855925,55.9800476 C95.1908538,56.016889 94.6444719,55.4566207 94.6444719,54.3020232 L94.6444719,49.9144134 L95.925507,49.9144134 L95.925507,51.7022671 C97.1571704,51.1969134 98.2163613,50.6727915 99.1063714,50.1312915 L99.823909,51.2142915 C98.9003261,51.7203402 97.6002005,52.3341329 95.925507,53.0563646 L95.925507,54.0302305 C95.925507,54.5362793 96.182899,54.7698402 96.6950497,54.734389 L97.7733312,54.734389 C98.2854819,54.7698402 98.5586729,54.5911939 98.5935623,54.192889 C98.660708,53.7952793 98.7133714,53.309389 98.7476025,52.7310476 C98.8825523,52.767889 99.0714819,52.8380963 99.3117583,52.9479256 C99.584291,53.0563646 99.7890196,53.1279622 99.9266025,53.1634134 C99.8923714,53.5617183 99.823909,54.0489988 99.7212156,54.6266451 L99.7212156,54.6808646 C99.5158286,55.5469866 98.9523312,55.9800476 98.0287482,55.9800476 L96.2855925,55.9800476 Z M96.2855925,49.3186939 C95.1908538,49.3186939 94.6444719,48.7417427 94.6444719,47.5871451 L94.6444719,43.3614988 L95.925507,43.3614988 L95.925507,45.3655354 C96.8490899,45.0054622 97.874708,44.4987183 99.0036779,43.8487793 L99.7212156,44.8775598 C98.4908688,45.5281939 97.2256327,46.1232183 95.925507,46.6654134 L95.925507,47.3153524 C95.8919342,47.8561573 96.1480095,48.1098768 96.6950497,48.0730354 L97.7213261,48.0730354 C98.2334769,48.1098768 98.5237834,47.8929988 98.5935623,47.4237915 C98.660708,46.9552793 98.7133714,46.5020598 98.7476025,46.0696939 C98.8147482,46.1065354 98.9345573,46.1419866 99.1063714,46.1767427 C99.3117583,46.2511207 99.584291,46.3595598 99.9266025,46.5020598 C99.8923714,46.9733524 99.8067935,47.478011 99.6705271,48.019511 C99.5336025,48.8856329 98.9687884,49.3186939 97.9774015,49.3186939 L96.2855925,49.3186939 Z M89.4123714,52.6226085 L92.336502,52.6226085 L92.336502,51.5389134 L89.4123714,51.5389134 L89.4123714,52.6226085 Z M89.4123714,50.5650476 L92.336502,50.5650476 L92.336502,49.4806573 L89.4123714,49.4806573 L89.4123714,50.5650476 Z M88.2333714,56.142011 L88.2333714,48.3983524 L93.515502,48.3983524 L93.515502,54.6266451 C93.5490749,55.5289134 93.1218437,55.9981207 92.2331503,56.0349622 L91.618306,56.0349622 C91.241105,56.0704134 90.9679141,56.0884866 90.7980749,56.0884866 C90.7631854,55.9077549 90.7289543,55.6561207 90.6947231,55.3308037 C90.6249442,55.1132305 90.5920296,54.9519622 90.5920296,54.842828 C90.7980749,54.8782793 91.1726427,54.8963524 91.7203412,54.8963524 C92.1311151,54.8963524 92.336502,54.7524622 92.336502,54.4639866 L92.336502,53.651389 L89.4123714,53.651389 L89.4123714,56.142011 L88.2333714,56.142011 Z M93.4648136,48.019511 C93.3272307,47.7678768 93.1725322,47.5315354 93.0033513,47.3153524 C92.011306,47.3521939 90.7118387,47.4057183 89.104291,47.478011 C88.9680246,47.478011 88.779095,47.4960841 88.5407935,47.5315354 C88.3011754,47.5676817 88.1122457,47.6052183 87.977296,47.6406695 L87.5151754,46.4485354 C87.8568286,46.2691939 88.1471352,46.0161695 88.3867533,45.6908524 C89.0707181,44.9686207 89.6855623,44.1198768 90.2332608,43.1446207 L91.618306,43.6325963 C91.5156126,43.7417305 91.3622307,43.9224622 91.1568437,44.1740963 C90.3695271,45.1493524 89.7540246,45.8715841 89.3103362,46.3400963 C89.6171,46.3046451 90.0969945,46.286572 90.7460698,46.286572 C91.3951452,46.2511207 91.8743814,46.2323524 92.1824618,46.2323524 L91.3102256,45.0409134 L92.2331503,44.4451939 C92.8822256,45.1674256 93.6353111,46.1065354 94.4897734,47.261828 L93.4648136,48.019511 Z" id="Fill-52" fill="#22A1BE" mask="url(#mask-10)"></path>
                <path d="M109.155651,47.2061488 L109.155651,45.8534415 L112.592591,45.8534415 L112.592591,43.3079049 L113.874943,43.3079049 L113.874943,45.8534415 L115.258671,45.8534415 L115.258671,47.2061488 L113.874943,47.2061488 L113.874943,54.3019537 C113.908516,55.4565512 113.34436,56.0348927 112.182475,56.0348927 L110.438003,56.0348927 C110.370199,55.6004415 110.283963,55.1500024 110.182586,54.6807951 C110.488691,54.7162463 110.967928,54.7343195 111.617003,54.7343195 C112.301626,54.7697707 112.625506,54.5007585 112.592591,53.9224171 L112.592591,48.9946976 C111.771702,50.7999293 110.609159,52.3521366 109.104963,53.6513195 L108.642842,53.1633439 C108.402566,52.8748683 108.233385,52.6774537 108.129375,52.5683195 C109.874506,51.2322951 111.224003,49.4458317 112.182475,47.2061488 L109.155651,47.2061488 Z M103.412058,52.189478 L103.412058,43.9029293 L108.540807,43.9029293 L108.540807,52.081039 L107.412495,52.081039 L107.412495,45.2028073 L104.488365,45.2028073 L104.488365,52.189478 L103.412058,52.189478 Z M108.129375,55.6004415 C107.822611,55.2751244 107.361149,54.8066122 106.745646,54.1928195 C106.437566,53.8675024 106.197948,53.6158683 106.028109,53.4351366 C105.720028,54.3387951 104.899139,55.2751244 103.566098,56.2510756 C103.49632,56.1773927 103.394943,56.0522707 103.258018,55.8722341 C103.188897,55.7269537 103.000626,55.4933927 102.693204,55.1680756 C103.821516,54.4826854 104.54037,53.7785268 104.847134,53.0562951 C105.223018,52.3340634 105.411948,51.2503683 105.411948,49.8059049 L105.411948,46.1773683 L106.540259,46.1773683 L106.540259,49.9143439 C106.540259,50.7818561 106.488254,51.5040878 106.386877,52.081039 C107.001722,52.6593805 107.839727,53.471978 108.899576,54.5181366 C108.968038,54.5911244 109.018727,54.6453439 109.053616,54.6807951 L108.129375,55.6004415 Z" id="Fill-53" fill="#22A1BE" mask="url(#mask-10)"></path>
                <path d="M127.258666,45.5824134 L121.924531,45.5824134 C122.710531,46.3769378 123.547219,46.9900354 124.437887,47.4237915 C125.360154,46.9900354 126.300194,46.3769378 127.258666,45.5824134 M124.335194,56.0349622 C124.335194,55.8535354 124.300305,55.5650598 124.232501,55.1681451 C124.16338,54.9151207 124.129807,54.7524622 124.129807,54.6808646 L125.206114,54.6808646 L126.335083,54.6808646 C127.155315,54.7524622 127.582546,54.3736207 127.617435,53.5436451 C127.617435,53.3997549 127.633234,53.1634134 127.668124,52.8380963 L127.668124,52.1346329 L123.771038,52.1346329 C123.496531,54.0135476 121.890299,55.4030963 118.95037,56.3053646 C118.847018,56.1607793 118.692978,55.9077549 118.488249,55.5469866 C118.283521,55.2571207 118.163053,55.0777793 118.12948,55.0061817 C120.625063,54.392389 122.026566,53.4352061 122.334646,52.1346329 L118.897707,52.1346329 L118.897707,50.9445841 L122.59138,50.9445841 C122.658526,50.5469744 122.692757,50.1132183 122.692757,49.644011 L124.129807,49.644011 L123.975767,50.9445841 L129.155862,50.9445841 C129.120973,51.9177549 129.070284,52.8214134 129.001164,53.651389 C128.968249,55.2751939 128.148018,56.0523402 126.539812,55.9800476 C126.027003,56.016889 125.29235,56.0349622 124.335194,56.0349622 M118.538938,50.3474744 C118.504048,50.2397305 118.41847,50.0423159 118.283521,49.75245 C118.145279,49.4271329 118.043903,49.1921817 117.97544,49.0482915 C120.026676,48.7966573 121.667797,48.4518768 122.898144,48.019511 C122.214179,47.5871451 121.54733,47.0088037 120.898254,46.286572 C120.385445,46.7550841 119.804174,47.261828 119.15444,47.8026329 C118.983943,47.5496085 118.675862,47.1895354 118.230857,46.720328 C119.735712,45.7096207 120.966058,44.5536329 121.924531,43.2537549 L123.412269,43.4699378 C123.172651,43.7952549 122.950149,44.0851207 122.746078,44.3367549 L129.053827,44.3367549 L129.053827,45.6359378 C127.890626,46.7919256 126.881465,47.5871451 126.027003,48.019511 C127.292239,48.4164256 128.797093,48.6882183 130.540908,48.8321085 C130.438214,49.0482915 130.284174,49.4090598 130.079445,49.9144134 C130.044556,50.0228524 130.009666,50.0958402 129.976093,50.1312915 C127.685239,49.8796573 125.83939,49.4459012 124.437887,48.8321085 C123.137762,49.4090598 121.172762,49.9144134 118.538938,50.3474744" id="Fill-54" fill="#22A1BE" mask="url(#mask-10)"></path>
            </g>
        </g>
    </g>
</svg>