<?xml version="1.0" encoding="UTF-8"?>
<svg width="90px" height="109px" viewBox="0 0 90 109" version="1.1" xmlns="http://www.w3.org/2000/svg" xmlns:xlink="http://www.w3.org/1999/xlink">
    <!-- Generator: Sketch 49 (51002) - http://www.bohemiancoding.com/sketch -->
    <title>Group 5</title>
    <desc>Created with Sketch.</desc>
    <defs>
        <rect id="path-1" x="0" y="0" width="90" height="109" rx="2"></rect>
        <polygon id="path-3" points="0.444018247 0.237959513 6.99905405 0.237959513 6.99905405 7.89390497 0.444018247 7.89390497"></polygon>
        <polygon id="path-5" points="0.236458108 0.239277118 5.43641757 0.239277118 5.43641757 13.8348554 0.236458108 13.8348554"></polygon>
        <polygon id="path-7" points="0 0.21971068 13.3609757 0.21971068 13.3609757 7.64968683 0 7.64968683"></polygon>
        <polygon id="path-9" points="0.171205263 0.395281583 44.5707975 0.395281583 44.5707975 26.2920608 0.171205263 26.2920608"></polygon>
    </defs>
    <g id="酒店" stroke="none" stroke-width="1" fill="none" fill-rule="evenodd">
        <g id="2-copy" transform="translate(-15.000000, -160.000000)">
            <g id="Group-5" transform="translate(15.000000, 160.000000)">
                <g id="Group">
                    <mask id="mask-2" fill="white">
                        <use xlink:href="#path-1"></use>
                    </mask>
                    <use id="Rectangle-2" fill="#F2F2F2" xlink:href="#path-1"></use>
                </g>
                <g id="Group-4" transform="translate(21.000000, 31.000000)">
                    <g id="Page-1">
                        <g id="Group-3" transform="translate(41.716216, 39.791745)">
                            <mask id="mask-4" fill="white">
                                <use xlink:href="#path-3"></use>
                            </mask>
                            <g id="Clip-2"></g>
                            <path d="M6.67267432,6.61055743 C5.88271486,6.13029031 5.1470527,5.54461476 4.48290405,4.88712973 C5.07752568,4.14531796 5.61917432,3.32379107 6.02243108,2.4330899 C6.24094459,1.94952877 6.19790405,1.39415814 5.90920135,0.94880756 C5.61917432,0.503456976 5.12851216,0.237959513 4.59613378,0.237959513 L1.30651216,0.237959513 C0.869485135,0.237959513 0.641039189,0.58185449 0.641039189,0.920479046 C0.641039189,1.26108001 0.869485135,1.60431618 1.30651216,1.60431618 L4.34716081,1.60431618 C4.46899865,1.60431618 4.58024189,1.66624363 4.64513378,1.76901684 C4.70737703,1.86783724 4.71532297,1.9824689 4.66632297,2.08392451 C4.37960676,2.67618808 4.00813378,3.26911045 3.55389054,3.85873881 C3.11885,3.31720304 2.72751216,2.74470355 2.40040405,2.14453435 C2.2805527,1.92581187 2.08587703,1.80459219 1.85345811,1.80459219 C1.60382297,1.80459219 1.34756622,1.95150518 1.21645811,2.17088645 C1.09329595,2.37511527 1.09263378,2.61096662 1.21248514,2.8316655 C1.61243108,3.56359523 2.09580946,4.26390244 2.64407973,4.91875226 C2.07528243,5.52221547 1.42172838,6.12106707 0.682093243,6.71267184 C0.468214865,6.88330173 0.394052703,7.11717666 0.477485135,7.35302801 C0.577471622,7.63631314 0.886039189,7.8497652 1.19526892,7.8497652 C1.35551216,7.8497652 1.51045811,7.79376697 1.64222838,7.68835855 C2.23685,7.21270304 2.91357973,6.61187504 3.57772838,5.91617945 C4.30610676,6.62570989 5.11129595,7.26277204 5.97740405,7.78981416 C6.09129595,7.85898843 6.20916081,7.89390497 6.32768784,7.89390497 C6.61837703,7.89390497 6.88324189,7.6765001 6.97130946,7.36488645 C7.05672838,7.06381365 6.94151216,6.77525809 6.67267432,6.61055743" id="Fill-1" fill="#CBCBCB" mask="url(#mask-4)"></path>
                        </g>
                        <g id="Group-6" transform="translate(35.094595, 33.862521)">
                            <mask id="mask-6" fill="white">
                                <use xlink:href="#path-5"></use>
                            </mask>
                            <g id="Clip-5"></g>
                            <path d="M4.77028243,4.13938874 C5.20797162,4.13938874 5.43641757,3.79615256 5.43641757,3.4555516 C5.43641757,3.11626824 5.20797162,2.77303206 4.77028243,2.77303206 L3.63666081,2.77303206 L3.63666081,0.902032572 C3.63666081,0.466564028 3.29167432,0.239277118 2.95066081,0.239277118 C2.60898514,0.239277118 2.26399865,0.466564028 2.26399865,0.902032572 L2.26399865,2.77303206 L0.903255405,2.77303206 C0.465566216,2.77303206 0.236458108,3.11626824 0.236458108,3.4555516 C0.236458108,3.79615256 0.465566216,4.13938874 0.903255405,4.13938874 L2.26399865,4.13938874 L2.26399865,7.80562542 C1.74618784,8.16072004 1.2270527,8.51449706 0.709241892,8.86827407 C0.393390541,9.08436134 0.361606757,9.41969188 0.436431081,9.66213125 C0.529133784,9.95727484 0.780755405,10.1634801 1.04826892,10.1634801 C1.17076892,10.1634801 1.29326892,10.1219755 1.41047162,10.0422604 L2.26399865,9.45856124 L2.26399865,11.8888842 C2.26399865,12.4686305 1.97728243,12.4686305 1.72433649,12.4686305 L1.33895811,12.4686305 C0.901931081,12.4686305 0.673485135,12.8118667 0.673485135,13.1524676 C0.673485135,13.4910922 0.901931081,13.8349872 1.33895811,13.8349872 L2.02628243,13.8349872 C2.91424189,13.8349872 3.63666081,13.1162335 3.63666081,12.2321203 L3.63666081,8.52042628 L5.08679595,7.52958711 C5.4026473,7.31415865 5.43509324,6.97948691 5.35960676,6.73638874 C5.26756622,6.44124515 5.01594459,6.23569873 4.74843108,6.23569873 C4.62460676,6.23569873 4.50343108,6.27588569 4.38622838,6.35625961 C4.13659324,6.5268895 3.88695811,6.69751938 3.63666081,6.86814926 L3.63666081,4.13938874 L4.77028243,4.13938874 Z" id="Fill-4" fill="#CBCBCB" mask="url(#mask-6)"></path>
                        </g>
                        <path d="M42.8594392,36.5614383 L45.8987635,36.5614383 C46.3265203,36.5614383 46.6741554,36.9073096 46.6741554,37.3322373 C46.6741554,37.7584826 46.3265203,38.104354 45.8987635,38.104354 L44.1963446,38.104354 C43.7579932,38.104354 43.5302095,38.448249 43.5302095,38.7875324 C43.5302095,39.1274745 43.7579932,39.4713695 44.1963446,39.4713695 L46.0464257,39.4713695 C47.15025,39.4713695 48.0474797,38.5780331 48.0474797,37.4804679 L48.0474797,37.1846656 C48.0474797,36.0877592 47.15025,35.1950816 46.0464257,35.1950816 L42.7111149,35.1950816 C41.6079527,35.1950816 40.710723,36.0877592 40.710723,37.1846656 L40.710723,47.0146597 C40.710723,47.4494695 41.0557095,47.6774152 41.3973851,47.6774152 C41.7383986,47.6774152 42.0840473,47.4494695 42.0840473,47.0146597 L42.0840473,37.3322373 C42.0840473,36.9073096 42.4316824,36.5614383 42.8594392,36.5614383" id="Fill-7" fill="#CBCBCB"></path>
                        <path d="M28.7206216,40.6139309 L26.7069865,40.6139309 L26.7069865,37.5149233 L28.0313108,37.5149233 C28.4113919,37.5149233 28.7206216,37.8225841 28.7206216,38.2013957 L28.7206216,40.6139309 Z M31.5156081,41.2964505 C31.5156081,40.9571671 31.2865,40.6139309 30.849473,40.6139309 L30.0939459,40.6139309 L30.0939459,38.1519855 C30.0939459,37.0471734 29.1907568,36.1485666 28.0803108,36.1485666 L26.7069865,36.1485666 L26.7069865,34.7644223 C26.7069865,34.3289538 26.3613378,34.1016668 26.0203243,34.1016668 C25.6793108,34.1016668 25.3336622,34.3289538 25.3336622,34.7644223 L25.3336622,36.1485666 L23.1637568,36.1485666 C22.7260676,36.1485666 22.4976216,36.4918028 22.4976216,36.8310862 C22.4976216,37.1716871 22.7260676,37.5149233 23.1637568,37.5149233 L25.3336622,37.5149233 L25.3336622,40.6139309 L22.3108919,40.6139309 C21.8732027,40.6139309 21.6447568,40.9571671 21.6447568,41.2964505 C21.6447568,41.6370514 21.8732027,41.9802876 22.3108919,41.9802876 L25.1416351,41.9802876 C24.6125676,43.5574611 23.5345676,45.1385874 22.0367568,46.5062617 C21.8308243,46.6946793 21.7672568,46.9443655 21.8632703,47.1887813 C21.9712027,47.463502 22.2572568,47.6631192 22.5459595,47.6631192 C22.7121622,47.6631192 22.8704189,47.5985565 23.0035135,47.4773368 C23.8888243,46.6676684 25.2965811,45.1570339 26.1474595,43.1819436 C27.097,44.9508287 28.5941486,46.5108733 30.4243649,47.5814276 C30.5369324,47.6473079 30.653473,47.6809068 30.7700135,47.6809068 L30.7706757,47.6809068 C31.0640135,47.6809068 31.339473,47.4549375 31.4242297,47.1426651 C31.5063378,46.8442275 31.388473,46.5609423 31.1183108,46.4021709 C29.3152432,45.3487455 27.8432568,43.7234794 27.0731622,41.9802876 L30.849473,41.9802876 C31.2865,41.9802876 31.5156081,41.6370514 31.5156081,41.2964505 Z" id="Fill-9" fill="#CBCBCB"></path>
                        <path d="M21.9327973,39.7586075 C22.3704865,39.7586075 22.5995946,39.4153713 22.5995946,39.0754291 C22.5995946,38.735487 22.3704865,38.3922508 21.9327973,38.3922508 L21.3719459,38.3922508 L21.3719459,34.7642247 C21.3719459,34.3294149 21.0262973,34.102128 20.6852838,34.102128 C20.3442703,34.102128 19.9986216,34.3294149 19.9986216,34.7642247 L19.9986216,38.3922508 L19.5351081,38.3922508 L19.5351081,37.0140357 C19.5351081,36.5785671 19.1894595,36.3512802 18.8484459,36.3512802 C18.5074324,36.3512802 18.1617838,36.5785671 18.1617838,37.0140357 L18.1617838,42.4702391 C18.1617838,42.9050489 18.5074324,43.1329946 18.8484459,43.1329946 C19.1894595,43.1329946 19.5351081,42.9050489 19.5351081,42.4702391 L19.5351081,39.7586075 L19.9986216,39.7586075 L19.9986216,47.0146597 C19.9986216,47.4494695 20.3442703,47.6774152 20.6852838,47.6774152 C21.0262973,47.6774152 21.3719459,47.4494695 21.3719459,47.0146597 L21.3719459,39.7586075 L21.9327973,39.7586075 Z" id="Fill-11" fill="#CBCBCB"></path>
                        <path d="M1.60494865,36.6412193 L11.7558946,36.6412193 C12.1935838,36.6412193 12.4220297,36.2979831 12.4220297,35.9573821 C12.4220297,35.6180988 12.1935838,35.2748626 11.7558946,35.2748626 L1.60494865,35.2748626 C1.16792162,35.2748626 0.938813514,35.6180988 0.938813514,35.9573821 C0.938813514,36.2979831 1.16792162,36.6412193 1.60494865,36.6412193" id="Fill-13" fill="#CBCBCB"></path>
                        <g id="Group-17" transform="translate(0.000000, 39.132943)">
                            <mask id="mask-8" fill="white">
                                <use xlink:href="#path-7"></use>
                            </mask>
                            <g id="Clip-16"></g>
                            <path d="M12.6948405,0.21971068 L0.666002703,0.21971068 C0.228975676,0.21971068 -0.000132432432,0.562946854 -0.000132432432,0.903547818 C-0.000132432432,1.24217237 0.228975676,1.58606735 0.666002703,1.58606735 L3.64771892,1.58606735 L1.70957027,5.19630581 C1.41358378,5.70951306 1.41424595,6.32088191 1.71221892,6.83211276 C2.00952973,7.34400241 2.54190811,7.64968683 3.13586757,7.64968683 L10.4322324,7.64968683 C11.0050027,7.64968683 11.5281108,7.35915487 11.8300568,6.87559373 C12.1326649,6.39005619 12.1604757,5.79515741 11.9055432,5.28392656 L10.9010432,3.27260211 C10.7851649,3.04202118 10.5527459,2.89840221 10.2931784,2.89840221 C10.1878946,2.89840221 10.0872459,2.9214603 9.99255676,2.96823529 C9.6575027,3.13425355 9.52043514,3.54007598 9.6873,3.87211251 L10.6918,5.88409576 C10.7566919,6.01387988 10.7037189,6.12324112 10.6778946,6.16474569 C10.6527324,6.20559145 10.5779081,6.30111783 10.4322324,6.30111783 L3.13586757,6.30111783 C2.98555676,6.30111783 2.91073243,6.20032103 2.88557027,6.15749886 C2.85444865,6.10347704 2.81273243,5.9941158 2.88623243,5.86696689 L5.18327297,1.58606735 L12.6948405,1.58606735 C13.1325297,1.58606735 13.3609757,1.24217237 13.3609757,0.903547818 C13.3609757,0.562946854 13.1325297,0.21971068 12.6948405,0.21971068" id="Fill-15" fill="#CBCBCB" mask="url(#mask-8)"></path>
                        </g>
                        <g id="Group-20" transform="translate(1.986486, 0.263587)">
                            <mask id="mask-10" fill="white">
                                <use xlink:href="#path-9"></use>
                            </mask>
                            <g id="Clip-19"></g>
                            <path d="M43.7479284,11.8484996 C42.4924689,9.71529663 40.2636311,8.69349373 38.7638338,9.56508962 C38.58505,9.66918044 38.4254689,9.79698815 38.2837662,9.94192473 L38.2837662,9.94126593 C38.2771446,9.94785396 38.2711851,9.95378318 38.2645635,9.96037121 C38.2639014,9.96103001 38.2632392,9.96103001 38.2632392,9.96168881 C22.8441311,25.4185163 8.65002297,23.3623933 7.91171216,23.2095511 C4.60023919,22.5237375 2.90841486,20.8418144 2.86007703,18.3087182 C2.81041486,15.6642844 5.03263108,13.4981414 7.69187432,13.4981414 L11.3066176,13.4981414 C12.1449149,13.4981414 12.8256176,12.8222099 12.8256176,11.9868481 C12.8256176,7.0622984 16.8376581,3.06929561 21.7886446,3.06929561 L22.0329824,3.06929561 C26.5853473,3.06929561 30.3556986,6.46410561 30.9225095,10.8425079 C31.0079284,11.5013106 31.5826851,11.9868481 32.2501446,11.9868481 C33.0586446,11.9868481 33.6910095,11.2792941 33.5857257,10.4801665 C32.8414554,4.79799373 27.9441041,0.395215703 22.0329824,0.395215703 L21.7886446,0.395215703 C15.7583338,0.395215703 10.7835095,4.97587045 10.1955095,10.8240615 L7.77663108,10.8240615 C3.59573919,10.8240615 0.0796581081,14.2294123 0.173022973,18.3877746 C0.25777973,22.1429496 2.84352297,24.9198027 7.33761757,25.8223623 C14.6233878,27.2849042 29.5034959,25.5048195 42.0163743,18.0293859 C40.647023,18.0366327 39.0896176,16.8758225 38.2009959,15.0456688 C37.9420905,14.5120386 37.7719149,13.9718205 37.6692797,13.4447784 C37.805023,13.9645736 38.0208878,14.4929334 38.3215095,15.0041642 C39.5749824,17.138026 41.8044824,18.15917 43.3029554,17.2888918 C44.8007662,16.4172959 45.000077,13.9810437 43.7479284,11.8484996" id="Fill-18" fill="#CBCBCB" mask="url(#mask-10)"></path>
                        </g>
                    </g>
                </g>
            </g>
        </g>
    </g>
</svg>